<svg width="1090" height="300" viewBox="0 0 1090 300" fill="none" xmlns="http://www.w3.org/2000/svg">
<circle cx="150" cy="150" r="150" fill="black"/>
<circle cx="183.5" cy="121.5" r="92.5" fill="white"/>
<path d="M176.567 104.585C181.251 99.7845 184.772 94.5483 187.128 88.8769C189.576 83.1832 188.846 79.2299 184.94 77.0168C180.017 74.188 175.103 74.7209 170.196 78.6153C166.266 81.7897 164.098 85.685 163.693 90.3011C163.212 96.5694 166.52 101.043 173.616 103.723L176.567 104.585ZM181.321 150.412C182.927 150.691 184.807 150.518 186.96 149.894C189.204 149.247 191.235 148.124 193.053 146.525C194.849 144.835 196.566 143.021 198.204 141.081C199.843 139.142 200.894 136.962 201.357 134.542C201.821 132.122 201.831 129.813 201.388 127.615C200.945 125.417 199.551 123.261 197.206 121.145C194.861 119.03 191.654 117.318 187.585 116.009C184.293 118.258 181.304 121.154 178.617 124.696C176.021 128.216 174.194 131.739 173.137 135.266C172.058 138.702 172.168 141.894 173.468 144.843C174.746 147.701 177.363 149.557 181.321 150.412ZM202.857 79.5409C206.172 82.4758 206.935 86.3727 205.148 91.2317C203.452 96.0685 199.373 102.162 192.911 109.513C197.635 111.142 202.492 113.314 207.483 116.029C212.474 118.745 215.6 120.717 216.863 121.945C218.036 122.811 218.686 124.285 218.812 126.368C219.03 128.429 219.019 130.738 218.782 133.295C218.612 135.739 217.922 138.407 216.709 141.299C215.496 144.191 214.047 146.901 212.361 149.429C210.743 151.844 208.481 153.985 205.575 155.851C202.782 157.785 199.687 159.073 196.288 159.714C194.453 160.068 188.493 158.887 178.409 156.172C168.416 153.434 162.653 151.292 161.121 149.745C155.801 144.515 154.246 137.978 156.454 130.133C158.662 122.287 163.513 115.62 171.007 110.129C158.236 105.862 150.885 102.14 148.952 98.9623C147.85 97.2144 147.556 94.6438 148.069 91.2506C148.56 87.7667 149.696 84.1724 151.479 80.4679C153.238 76.6727 156.038 73.199 159.878 70.0468C163.786 66.7818 168.22 64.6849 173.182 63.7561C174.745 63.4687 179.535 65.5612 187.551 70.0336C195.658 74.4836 200.76 77.6528 202.857 79.5409Z" fill="black"/>
<path d="M340.003 121.07L332.803 112.97H383.833L391.033 121.07H369.343L369.523 175.61L356.923 173V121.07H340.003ZM407.994 111.62V136.64C413.574 131.3 418.404 128.78 422.484 129.08C424.404 129.2 427.764 131.6 432.564 136.28C437.424 140.9 440.004 144.05 440.304 145.73C440.544 147.29 440.664 157.25 440.664 175.61L429.504 173.09C429.864 152.51 429.714 141.62 429.054 140.42C427.914 138.32 426.054 137.72 423.474 138.62C420.954 139.46 418.314 141.02 415.554 143.3C412.854 145.52 410.334 148.04 407.994 150.86V175.61L396.744 173.09V109.1L407.994 111.62ZM459.625 155.09L480.055 141.14C475.735 138.38 472.045 137.36 468.985 138.08C465.985 138.8 463.675 140.69 462.055 143.75C460.435 146.75 459.625 150.53 459.625 155.09ZM461.695 163.73C463.375 165.77 465.265 167.03 467.365 167.51C469.465 167.99 471.655 167.72 473.935 166.7C476.275 165.62 478.225 164.57 479.785 163.55C481.345 162.47 483.175 161.06 485.275 159.32L487.075 161.12C488.215 162.38 489.355 163.64 490.495 164.9L492.295 166.7C487.075 170.54 482.665 173.09 479.065 174.35C475.465 175.67 471.895 175.67 468.355 174.35C463.195 172.37 458.335 168.89 453.775 163.91C451.075 160.91 449.515 157.37 449.095 153.29C448.675 149.15 449.185 145.31 450.625 141.77C452.125 138.23 454.405 135.23 457.465 132.77C460.585 130.25 463.975 128.99 467.635 128.99C470.035 128.99 473.575 130.55 478.255 133.67C482.995 136.73 486.925 139.73 490.045 142.67C489.985 142.85 487.585 144.71 482.845 148.25C478.165 151.73 473.455 155.18 468.715 158.6L461.695 163.73ZM548.396 138.89C552.056 136.61 555.056 133.88 557.396 130.7C559.796 127.52 559.946 124.94 557.846 122.96C555.206 120.44 552.056 120.02 548.396 121.7C545.456 123.08 543.506 125.18 542.546 128C541.286 131.84 542.666 135.14 546.686 137.9L548.396 138.89ZM544.346 168.23C545.306 168.65 546.506 168.83 547.946 168.77C549.446 168.71 550.886 168.32 552.266 167.6C553.646 166.82 554.996 165.95 556.316 164.99C557.636 164.03 558.626 162.83 559.286 161.39C559.946 159.95 560.306 158.51 560.366 157.07C560.426 155.63 559.886 154.07 558.746 152.39C557.606 150.71 555.866 149.15 553.526 147.71C551.126 148.61 548.816 149.96 546.596 151.76C544.436 153.56 542.756 155.48 541.556 157.52C540.356 159.5 539.936 161.51 540.296 163.55C540.656 165.53 542.006 167.09 544.346 168.23ZM568.646 127.28C570.266 129.62 570.146 132.17 568.286 134.93C566.486 137.69 563.006 140.87 557.846 144.47C560.546 146.21 563.246 148.31 565.946 150.77C568.646 153.23 570.296 154.94 570.896 155.9C571.496 156.62 571.676 157.64 571.436 158.96C571.256 160.28 570.896 161.72 570.356 163.28C569.876 164.78 569.036 166.34 567.836 167.96C566.636 169.58 565.316 171.05 563.876 172.37C562.496 173.63 560.756 174.62 558.656 175.34C556.616 176.12 554.486 176.45 552.266 176.33C551.066 176.27 547.526 174.62 541.646 171.38C535.826 168.14 532.556 165.92 531.836 164.72C529.316 160.64 529.346 156.32 531.926 151.76C534.506 147.2 538.556 143.78 544.076 141.5C536.756 136.88 532.736 133.43 532.016 131.15C531.596 129.89 531.806 128.24 532.646 126.2C533.486 124.1 534.746 122.03 536.426 119.99C538.106 117.89 540.386 116.15 543.266 114.77C546.206 113.33 549.296 112.7 552.536 112.88C553.556 112.94 556.226 114.98 560.546 119C564.926 123.02 567.626 125.78 568.646 127.28ZM625.126 121.16L625.216 141.41C629.836 141.41 633.826 140.84 637.186 139.7C640.546 138.5 643.006 137.06 644.566 135.38C646.126 133.64 647.266 131.81 647.986 129.89C648.706 127.97 648.946 126.23 648.706 124.67C648.526 123.11 648.106 121.97 647.446 121.25C646.306 120.05 644.476 119.3 641.956 119C639.496 118.64 636.856 118.7 634.036 119.18C631.216 119.6 628.246 120.26 625.126 121.16ZM625.216 145.91L625.306 168.32C635.986 169.4 643.816 167.57 648.796 162.83C652.036 159.71 653.206 156.2 652.306 152.3C651.706 149.66 650.206 147.53 647.806 145.91C641.626 148.55 634.096 148.55 625.216 145.91ZM625.306 173.09L612.706 170.3V112.79C617.686 111.41 623.716 110.66 630.796 110.54C637.936 110.42 642.226 110.9 643.666 111.98C645.526 113.18 648.016 115.28 651.136 118.28C654.316 121.28 656.806 123.83 658.606 125.93C659.386 127.19 659.776 128.75 659.776 130.61C659.776 132.47 659.116 134.63 657.796 137.09C656.476 139.49 654.706 141.53 652.486 143.21C657.346 146.03 661.306 149.18 664.366 152.66C665.386 153.86 665.776 155.57 665.536 157.79C665.296 160.01 664.366 162.32 662.746 164.72C661.126 167.12 658.666 169.25 655.366 171.11C652.126 172.97 648.016 174.14 643.036 174.62C638.116 175.16 632.206 174.65 625.306 173.09ZM678.436 141.41L673.576 133.22C677.776 132.14 682.426 131.12 687.526 130.16C692.686 129.2 695.926 128.75 697.246 128.81C698.566 128.87 701.206 130.85 705.166 134.75C709.126 138.59 711.796 141.53 713.176 143.57C713.656 144.29 713.896 146.72 713.896 150.86C713.896 154.94 713.806 159.62 713.626 164.9C713.506 170.18 713.476 173.75 713.536 175.61L702.376 173L702.466 168.41C697.606 173.27 693.646 175.7 690.586 175.7C687.706 175.64 684.046 172.91 679.606 167.51C675.166 162.11 672.946 158.24 672.946 155.9C672.946 154.04 674.206 152.33 676.726 150.77C679.246 149.21 682.306 148.01 685.906 147.17C689.566 146.27 692.806 145.58 695.626 145.1C698.446 144.62 700.846 144.29 702.826 144.11L702.916 141.68C702.976 138.8 701.446 137.24 698.326 137C695.446 136.82 689.386 138.11 680.146 140.87H680.056L679.966 140.96H679.876H679.786L679.696 141.05H679.606H679.516L679.426 141.14H679.336H679.246L679.156 141.23H679.066H678.976H678.886L678.796 141.32H678.706H678.616L678.526 141.41H678.436ZM682.936 164C683.476 164.84 684.496 165.38 685.996 165.62C687.496 165.86 689.746 165.47 692.746 164.45C695.806 163.37 699.106 161.51 702.646 158.87L702.736 150.95C686.896 155.57 680.296 159.92 682.936 164ZM735.826 111.62V175.61L724.576 173.09V109.1L735.826 111.62ZM757.535 111.62V175.61L746.285 173.09V109.1L757.535 111.62ZM812.509 121.16L812.599 141.41C817.219 141.41 821.209 140.84 824.569 139.7C827.929 138.5 830.389 137.06 831.949 135.38C833.509 133.64 834.649 131.81 835.369 129.89C836.089 127.97 836.329 126.23 836.089 124.67C835.909 123.11 835.489 121.97 834.829 121.25C833.689 120.05 831.859 119.3 829.339 119C826.879 118.64 824.239 118.7 821.419 119.18C818.599 119.6 815.629 120.26 812.509 121.16ZM812.599 145.91L812.689 168.32C823.369 169.4 831.199 167.57 836.179 162.83C839.419 159.71 840.589 156.2 839.689 152.3C839.089 149.66 837.589 147.53 835.189 145.91C829.009 148.55 821.479 148.55 812.599 145.91ZM812.689 173.09L800.089 170.3V112.79C805.069 111.41 811.099 110.66 818.179 110.54C825.319 110.42 829.609 110.9 831.049 111.98C832.909 113.18 835.399 115.28 838.519 118.28C841.699 121.28 844.189 123.83 845.989 125.93C846.769 127.19 847.159 128.75 847.159 130.61C847.159 132.47 846.499 134.63 845.179 137.09C843.859 139.49 842.089 141.53 839.869 143.21C844.729 146.03 848.689 149.18 851.749 152.66C852.769 153.86 853.159 155.57 852.919 157.79C852.679 160.01 851.749 162.32 850.129 164.72C848.509 167.12 846.049 169.25 842.749 171.11C839.509 172.97 835.399 174.14 830.419 174.62C825.499 175.16 819.589 174.65 812.689 173.09ZM873.289 132.5V139.16C877.669 132.26 881.389 128.81 884.449 128.81C885.949 128.81 888.469 129.59 892.009 131.15C895.549 132.65 898.519 134.21 900.919 135.83L894.709 144.83C890.989 142.07 887.749 140.57 884.989 140.33C882.289 140.03 880.129 140.57 878.509 141.95C876.889 143.27 875.149 145.43 873.289 148.43V175.61L862.039 173.09V129.98L873.289 132.5ZM910.204 141.41L905.344 133.22C909.544 132.14 914.194 131.12 919.294 130.16C924.454 129.2 927.694 128.75 929.014 128.81C930.334 128.87 932.974 130.85 936.934 134.75C940.894 138.59 943.564 141.53 944.944 143.57C945.424 144.29 945.664 146.72 945.664 150.86C945.664 154.94 945.574 159.62 945.394 164.9C945.274 170.18 945.244 173.75 945.304 175.61L934.144 173L934.234 168.41C929.374 173.27 925.414 175.7 922.354 175.7C919.474 175.64 915.814 172.91 911.374 167.51C906.934 162.11 904.714 158.24 904.714 155.9C904.714 154.04 905.974 152.33 908.494 150.77C911.014 149.21 914.074 148.01 917.674 147.17C921.334 146.27 924.574 145.58 927.394 145.1C930.214 144.62 932.614 144.29 934.594 144.11L934.684 141.68C934.744 138.8 933.214 137.24 930.094 137C927.214 136.82 921.154 138.11 911.914 140.87H911.824L911.734 140.96H911.644H911.554L911.464 141.05H911.374H911.284L911.194 141.14H911.104H911.014L910.924 141.23H910.834H910.744H910.654L910.564 141.32H910.474H910.384L910.294 141.41H910.204ZM914.704 164C915.244 164.84 916.264 165.38 917.764 165.62C919.264 165.86 921.514 165.47 924.514 164.45C927.574 163.37 930.874 161.51 934.414 158.87L934.504 150.95C918.664 155.57 912.064 159.92 914.704 164ZM968.044 132.5V136.19C973.384 131.21 978.064 128.84 982.084 129.08C984.004 129.2 987.364 131.6 992.164 136.28C997.024 140.9 999.604 144.05 999.904 145.73C1000.14 147.29 1000.26 157.25 1000.26 175.61L989.104 173.09C989.464 152.51 989.314 141.62 988.654 140.42C987.574 138.38 985.774 137.78 983.254 138.62C980.794 139.4 978.214 140.84 975.514 142.94C972.874 145.04 970.384 147.5 968.044 150.32V175.61L956.344 173.09V129.98L968.044 132.5ZM1022.83 168.41C1027.57 170.81 1033.3 169.64 1040.02 164.9V139.61C1038.28 138.59 1035.85 137.9 1032.73 137.54C1030.27 137.3 1027.87 138.56 1025.53 141.32C1023.19 144.02 1021.42 147.17 1020.22 150.77C1019.02 154.37 1018.57 157.94 1018.87 161.48C1019.23 164.96 1020.55 167.27 1022.83 168.41ZM1040.02 109.1L1051.27 111.62C1051.63 152.12 1051.63 172.55 1051.27 172.91C1050.97 172.97 1049.41 173.3 1046.59 173.9C1043.83 174.56 1042.06 174.95 1041.28 175.07C1040.5 175.19 1038.88 175.37 1036.42 175.61C1034.02 175.85 1032.1 175.85 1030.66 175.61C1029.28 175.37 1027.54 174.95 1025.44 174.35C1023.34 173.81 1021.33 173 1019.41 171.92C1015.99 170.06 1013.35 167.78 1011.49 165.08C1009.63 162.38 1008.64 159.62 1008.52 156.8C1008.4 153.98 1008.73 151.13 1009.51 148.25C1010.29 145.31 1011.52 142.64 1013.2 140.24C1014.94 137.78 1016.77 135.62 1018.69 133.76C1020.67 131.9 1022.74 130.58 1024.9 129.8C1027.06 128.96 1028.98 128.81 1030.66 129.35C1031.44 129.59 1032.25 129.95 1033.09 130.43C1033.99 130.85 1034.71 131.24 1035.25 131.6C1035.85 131.96 1036.66 132.5 1037.68 133.22C1038.76 133.94 1039.54 134.45 1040.02 134.75V109.1Z" fill="white"/>
<path d="M340.003 121.07L338.508 122.399L339.105 123.07H340.003V121.07ZM332.803 112.97V110.97H328.349L331.308 114.299L332.803 112.97ZM383.833 112.97L385.328 111.641L384.731 110.97H383.833V112.97ZM391.033 121.07V123.07H395.486L392.528 119.741L391.033 121.07ZM369.343 121.07V119.07H367.336L367.343 121.077L369.343 121.07ZM369.523 175.61L369.117 177.568L371.531 178.068L371.523 175.603L369.523 175.61ZM356.923 173H354.923V174.628L356.517 174.958L356.923 173ZM356.923 121.07H358.923V119.07H356.923V121.07ZM341.498 119.741L334.298 111.641L331.308 114.299L338.508 122.399L341.498 119.741ZM332.803 114.97H383.833V110.97H332.803V114.97ZM382.338 114.299L389.538 122.399L392.528 119.741L385.328 111.641L382.338 114.299ZM391.033 119.07H369.343V123.07H391.033V119.07ZM367.343 121.077L367.523 175.617L371.523 175.603L371.343 121.063L367.343 121.077ZM369.928 173.652L357.328 171.042L356.517 174.958L369.117 177.568L369.928 173.652ZM358.923 173V121.07H354.923V173H358.923ZM356.923 119.07H340.003V123.07H356.923V119.07ZM407.994 111.62H409.994V110.018L408.431 109.668L407.994 111.62ZM407.994 136.64H405.994V141.322L409.377 138.085L407.994 136.64ZM422.484 129.08L422.338 131.075L422.349 131.075L422.359 131.076L422.484 129.08ZM432.564 136.28L431.168 137.712L431.177 137.721L431.186 137.73L432.564 136.28ZM440.304 145.73L442.281 145.426L442.277 145.402L442.273 145.378L440.304 145.73ZM440.664 175.61L440.224 177.561L442.664 178.112V175.61H440.664ZM429.504 173.09L427.505 173.055L427.476 174.682L429.064 175.041L429.504 173.09ZM429.054 140.42L427.296 141.374L427.302 141.384L429.054 140.42ZM423.474 138.62L424.107 140.517L424.12 140.513L424.133 140.508L423.474 138.62ZM415.554 143.3L416.824 144.845L416.828 144.842L415.554 143.3ZM407.994 150.86L406.455 149.583L405.994 150.138V150.86H407.994ZM407.994 175.61L407.557 177.562L409.994 178.108V175.61H407.994ZM396.744 173.09H394.744V174.692L396.307 175.042L396.744 173.09ZM396.744 109.1L397.181 107.148L394.744 106.602V109.1H396.744ZM405.994 111.62V136.64H409.994V111.62H405.994ZM409.377 138.085C414.877 132.821 419.156 130.841 422.338 131.075L422.631 127.085C417.652 126.719 412.271 129.779 406.611 135.195L409.377 138.085ZM422.359 131.076C422.711 131.098 423.63 131.417 425.282 132.597C426.844 133.713 428.802 135.405 431.168 137.712L433.96 134.848C431.526 132.475 429.404 130.627 427.607 129.343C425.899 128.123 424.178 127.182 422.609 127.084L422.359 131.076ZM431.186 137.73C433.589 140.014 435.382 141.892 436.597 143.375C437.204 144.116 437.642 144.728 437.934 145.219C438.24 145.732 438.321 146.004 438.335 146.082L442.273 145.378C442.137 144.616 441.784 143.865 441.37 143.17C440.942 142.453 440.374 141.674 439.691 140.84C438.326 139.173 436.399 137.166 433.942 134.83L431.186 137.73ZM438.327 146.034C438.365 146.279 438.417 147.06 438.463 148.537C438.507 149.959 438.544 151.909 438.574 154.394C438.634 159.362 438.664 166.433 438.664 175.61H442.664C442.664 166.427 442.634 159.338 442.574 154.346C442.544 151.851 442.506 149.871 442.461 148.413C442.417 147.01 442.363 145.961 442.281 145.426L438.327 146.034ZM441.105 173.659L429.945 171.139L429.064 175.041L440.224 177.561L441.105 173.659ZM431.504 173.125C431.684 162.829 431.737 154.937 431.662 149.46C431.624 146.725 431.554 144.567 431.449 143.003C431.397 142.224 431.334 141.561 431.257 141.033C431.195 140.614 431.087 139.965 430.807 139.456L427.302 141.384C427.187 141.175 427.228 141.129 427.299 141.615C427.355 141.993 427.409 142.538 427.458 143.271C427.556 144.729 427.625 146.805 427.662 149.515C427.736 154.928 427.684 162.771 427.505 173.055L431.504 173.125ZM430.812 139.466C430.054 138.07 428.941 136.983 427.418 136.492C425.937 136.014 424.357 136.194 422.815 136.732L424.133 140.508C425.172 140.146 425.811 140.176 426.19 140.298C426.527 140.407 426.914 140.67 427.297 141.374L430.812 139.466ZM422.842 136.723C420.022 137.663 417.168 139.372 414.28 141.758L416.828 144.842C419.46 142.668 421.886 141.257 424.107 140.517L422.842 136.723ZM414.284 141.755C411.481 144.059 408.872 146.67 406.455 149.583L409.533 152.137C411.796 149.41 414.227 146.981 416.824 144.845L414.284 141.755ZM405.994 150.86V175.61H409.994V150.86H405.994ZM408.431 173.658L397.181 171.138L396.307 175.042L407.557 177.562L408.431 173.658ZM398.744 173.09V109.1H394.744V173.09H398.744ZM396.307 111.052L407.557 113.572L408.431 109.668L397.181 107.148L396.307 111.052ZM459.625 155.09H457.625V158.877L460.753 156.742L459.625 155.09ZM480.055 141.14L481.183 142.792L483.683 141.085L481.132 139.455L480.055 141.14ZM468.985 138.08L468.527 136.133L468.519 136.135L468.985 138.08ZM462.055 143.75L463.815 144.7L463.819 144.693L463.823 144.686L462.055 143.75ZM461.695 163.73L460.515 162.115L458.804 163.366L460.152 165.001L461.695 163.73ZM467.365 167.51L467.811 165.56L467.811 165.56L467.365 167.51ZM473.935 166.7L474.752 168.526L474.763 168.521L474.774 168.516L473.935 166.7ZM479.785 163.55L480.88 165.224L480.902 165.209L480.924 165.194L479.785 163.55ZM485.275 159.32L486.69 157.906L485.402 156.618L483.999 157.78L485.275 159.32ZM487.075 161.12L488.558 159.778L488.525 159.741L488.49 159.706L487.075 161.12ZM490.495 164.9L489.012 166.242L489.046 166.279L489.081 166.314L490.495 164.9ZM492.295 166.7L493.481 168.311L495.356 166.932L493.71 165.286L492.295 166.7ZM479.065 174.35L478.405 172.462L478.391 172.467L478.377 172.472L479.065 174.35ZM468.355 174.35L467.639 176.217L467.648 176.221L467.657 176.224L468.355 174.35ZM453.775 163.91L452.289 165.248L452.295 165.254L452.3 165.261L453.775 163.91ZM449.095 153.29L447.106 153.492L447.106 153.495L449.095 153.29ZM450.625 141.77L448.784 140.99L448.778 141.003L448.773 141.016L450.625 141.77ZM457.465 132.77L458.719 134.329L458.722 134.326L457.465 132.77ZM478.255 133.67L477.146 135.334L477.158 135.342L477.171 135.35L478.255 133.67ZM490.045 142.67L491.943 143.302L492.347 142.091L491.417 141.214L490.045 142.67ZM482.845 148.25L484.039 149.855L484.042 149.852L482.845 148.25ZM468.715 158.6L467.545 156.978L467.535 156.985L468.715 158.6ZM460.753 156.742L481.183 142.792L478.928 139.488L458.498 153.438L460.753 156.742ZM481.132 139.455C476.632 136.58 472.363 135.231 468.527 136.133L469.443 140.027C471.727 139.489 474.839 140.18 478.979 142.825L481.132 139.455ZM468.519 136.135C464.888 137.006 462.14 139.316 460.288 142.814L463.823 144.686C465.211 142.064 467.082 140.594 469.452 140.025L468.519 136.135ZM460.296 142.8C458.474 146.174 457.625 150.306 457.625 155.09H461.625C461.625 150.754 462.397 147.326 463.815 144.7L460.296 142.8ZM460.152 165.001C462.047 167.303 464.298 168.861 466.92 169.46L467.811 165.56C466.232 165.199 464.704 164.237 463.239 162.459L460.152 165.001ZM466.92 169.46C469.508 170.051 472.142 169.693 474.752 168.526L473.119 164.874C471.169 165.747 469.423 165.929 467.811 165.56L466.92 169.46ZM474.774 168.516C477.171 167.409 479.214 166.313 480.88 165.224L478.691 161.876C477.237 162.827 475.379 163.831 473.097 164.884L474.774 168.516ZM480.924 165.194C482.547 164.071 484.424 162.622 486.551 160.86L483.999 157.78C481.926 159.498 480.144 160.869 478.647 161.906L480.924 165.194ZM483.861 160.734L485.661 162.534L488.49 159.706L486.69 157.906L483.861 160.734ZM485.592 162.462C486.732 163.722 487.872 164.982 489.012 166.242L491.978 163.558C490.838 162.298 489.698 161.038 488.558 159.778L485.592 162.462ZM489.081 166.314L490.881 168.114L493.71 165.286L491.91 163.486L489.081 166.314ZM491.11 165.089C485.955 168.881 481.731 171.298 478.405 172.462L479.726 176.238C483.6 174.882 488.196 172.199 493.481 168.311L491.11 165.089ZM478.377 172.472C475.218 173.631 472.14 173.627 469.054 172.476L467.657 176.224C471.651 177.713 475.713 177.709 479.754 176.228L478.377 172.472ZM469.072 172.483C464.259 170.636 459.647 167.361 455.25 162.559L452.3 165.261C457.024 170.419 462.132 174.104 467.639 176.217L469.072 172.483ZM455.262 162.572C452.85 159.892 451.462 156.751 451.085 153.085L447.106 153.495C447.569 157.989 449.3 161.928 452.289 165.248L455.262 162.572ZM451.085 153.088C450.695 149.244 451.172 145.735 452.478 142.524L448.773 141.016C447.199 144.885 446.656 149.056 447.106 153.492L451.085 153.088ZM452.467 142.55C453.835 139.321 455.91 136.586 458.719 134.329L456.212 131.211C452.901 133.874 450.416 137.139 448.784 140.99L452.467 142.55ZM458.722 134.326C461.523 132.064 464.477 130.99 467.635 130.99V126.99C463.473 126.99 459.648 128.436 456.209 131.214L458.722 134.326ZM467.635 130.99C468.439 130.99 469.631 131.262 471.284 131.99C472.913 132.708 474.863 133.812 477.146 135.334L479.365 132.006C476.968 130.408 474.808 129.172 472.897 128.33C471.01 127.498 469.232 126.99 467.635 126.99V130.99ZM477.171 135.35C481.838 138.364 485.665 141.29 488.674 144.126L491.417 141.214C488.186 138.17 484.152 135.096 479.34 131.99L477.171 135.35ZM488.148 142.038C488.244 141.75 488.383 141.56 488.413 141.519C488.464 141.449 488.507 141.4 488.523 141.382C488.557 141.345 488.573 141.331 488.551 141.352C488.512 141.388 488.429 141.461 488.285 141.58C488.003 141.814 487.57 142.158 486.975 142.619C485.79 143.538 484.016 144.879 481.649 146.648L484.042 149.852C486.415 148.081 488.211 146.722 489.426 145.781C490.03 145.312 490.505 144.936 490.838 144.66C491.002 144.524 491.153 144.394 491.275 144.281C491.334 144.226 491.413 144.151 491.49 144.065C491.529 144.022 491.589 143.953 491.653 143.864C491.695 143.806 491.843 143.601 491.943 143.302L488.148 142.038ZM481.652 146.645C476.98 150.119 472.277 153.564 467.545 156.978L469.886 160.222C474.633 156.796 479.351 153.341 484.039 149.855L481.652 146.645ZM467.535 156.985L460.515 162.115L462.875 165.345L469.895 160.215L467.535 156.985ZM548.396 138.89L547.394 140.621L548.434 141.223L549.454 140.588L548.396 138.89ZM557.396 130.7L555.8 129.495L555.793 129.505L555.785 129.515L557.396 130.7ZM557.846 122.96L556.465 124.407L556.474 124.415L557.846 122.96ZM548.396 121.7L547.562 119.882L547.554 119.886L547.547 119.89L548.396 121.7ZM542.546 128L540.653 127.355L540.649 127.366L540.646 127.376L542.546 128ZM546.686 137.9L545.554 139.549L545.618 139.592L545.684 139.631L546.686 137.9ZM544.346 168.23L543.47 170.028L543.507 170.046L543.545 170.062L544.346 168.23ZM547.946 168.77L547.866 166.772L547.863 166.772L547.946 168.77ZM552.266 167.6L553.191 169.373L553.221 169.358L553.25 169.341L552.266 167.6ZM556.316 164.99L555.14 163.373L555.14 163.373L556.316 164.99ZM559.286 161.39L557.468 160.557L557.468 160.557L559.286 161.39ZM560.366 157.07L562.365 157.153L562.365 157.153L560.366 157.07ZM558.746 152.39L560.401 151.267L560.401 151.267L558.746 152.39ZM553.526 147.71L554.575 146.007L553.741 145.494L552.824 145.837L553.526 147.71ZM546.596 151.76L545.337 150.206L545.326 150.215L545.316 150.224L546.596 151.76ZM541.556 157.52L543.267 158.557L543.274 158.545L543.28 158.534L541.556 157.52ZM540.296 163.55L538.327 163.898L538.329 163.908L540.296 163.55ZM568.646 127.28L566.992 128.405L566.997 128.412L567.002 128.418L568.646 127.28ZM568.286 134.93L566.628 133.812L566.619 133.825L566.611 133.837L568.286 134.93ZM557.846 144.47L556.702 142.83L554.256 144.536L556.763 146.151L557.846 144.47ZM565.946 150.77L567.293 149.292L567.293 149.292L565.946 150.77ZM570.896 155.9L569.2 156.96L569.273 157.076L569.36 157.18L570.896 155.9ZM571.436 158.96L569.469 158.602L569.461 158.646L569.455 158.69L571.436 158.96ZM570.356 163.28L568.466 162.626L568.459 162.648L568.451 162.67L570.356 163.28ZM567.836 167.96L569.443 169.15L569.443 169.15L567.836 167.96ZM563.876 172.37L565.225 173.847L565.228 173.844L563.876 172.37ZM558.656 175.34L558.008 173.448L557.975 173.459L557.942 173.472L558.656 175.34ZM552.266 176.33L552.374 174.333L552.366 174.332L552.266 176.33ZM541.646 171.38L540.674 173.127L540.681 173.132L541.646 171.38ZM531.836 164.72L533.551 163.691L533.545 163.68L533.538 163.669L531.836 164.72ZM531.926 151.76L530.186 150.775L530.186 150.775L531.926 151.76ZM544.076 141.5L544.84 143.349L548.414 141.872L545.144 139.809L544.076 141.5ZM532.016 131.15L533.923 130.548L533.919 130.533L533.914 130.518L532.016 131.15ZM532.646 126.2L534.496 126.961L534.5 126.952L534.503 126.943L532.646 126.2ZM536.426 119.99L537.97 121.261L537.979 121.25L537.988 121.239L536.426 119.99ZM543.266 114.77L544.131 116.574L544.138 116.57L544.146 116.566L543.266 114.77ZM552.536 112.88L552.654 110.883L552.647 110.883L552.536 112.88ZM560.546 119L559.184 120.464L559.194 120.473L560.546 119ZM549.454 140.588C553.309 138.186 556.504 135.288 559.007 131.885L555.785 129.515C553.609 132.472 550.803 135.034 547.339 137.192L549.454 140.588ZM558.993 131.905C560.311 130.158 561.198 128.341 561.305 126.496C561.419 124.542 560.642 122.847 559.218 121.505L556.474 124.415C557.151 125.053 557.349 125.638 557.312 126.264C557.269 126.999 556.882 128.062 555.8 129.495L558.993 131.905ZM559.227 121.513C557.648 120.006 555.823 119.047 553.768 118.773C551.731 118.501 549.644 118.927 547.562 119.882L549.231 123.518C550.808 122.793 552.127 122.589 553.24 122.737C554.335 122.883 555.404 123.394 556.465 124.407L559.227 121.513ZM547.547 119.89C544.164 121.477 541.805 123.972 540.653 127.355L544.44 128.645C545.208 126.388 546.749 124.683 549.246 123.51L547.547 119.89ZM540.646 127.376C539.887 129.69 539.892 131.975 540.791 134.127C541.674 136.239 543.339 138.028 545.554 139.549L547.818 136.251C546.014 135.012 544.978 133.771 544.481 132.583C544.001 131.435 543.946 130.15 544.447 128.624L540.646 127.376ZM545.684 139.631L547.394 140.621L549.398 137.159L547.688 136.169L545.684 139.631ZM543.545 170.062C544.867 170.641 546.393 170.836 548.03 170.768L547.863 166.772C546.619 166.824 545.745 166.659 545.148 166.398L543.545 170.062ZM548.026 170.768C549.832 170.696 551.56 170.225 553.191 169.373L551.341 165.827C550.213 166.415 549.061 166.724 547.866 166.772L548.026 170.768ZM553.25 169.341C554.699 168.523 556.113 167.611 557.493 166.607L555.14 163.373C553.88 164.289 552.594 165.117 551.282 165.859L553.25 169.341ZM557.493 166.607C559.082 165.452 560.297 163.985 561.104 162.223L557.468 160.557C556.956 161.675 556.191 162.608 555.14 163.373L557.493 166.607ZM561.104 162.223C561.862 160.571 562.293 158.877 562.365 157.153L558.368 156.987C558.32 158.143 558.031 159.329 557.468 160.557L561.104 162.223ZM562.365 157.153C562.448 155.141 561.686 153.161 560.401 151.267L557.091 153.513C558.086 154.979 558.404 156.119 558.368 156.987L562.365 157.153ZM560.401 151.267C559.057 149.286 557.075 147.546 554.575 146.007L552.478 149.413C554.658 150.754 556.156 152.134 557.091 153.513L560.401 151.267ZM552.824 145.837C550.201 146.821 547.705 148.286 545.337 150.206L547.856 153.314C549.928 151.634 552.052 150.399 554.229 149.583L552.824 145.837ZM545.316 150.224C543.012 152.144 541.169 154.234 539.832 156.506L543.28 158.534C544.344 156.726 545.861 154.976 547.877 153.296L545.316 150.224ZM539.846 156.483C538.426 158.826 537.872 161.323 538.327 163.898L542.266 163.202C542 161.697 542.286 160.174 543.267 158.557L539.846 156.483ZM538.329 163.908C538.835 166.692 540.743 168.699 543.47 170.028L545.222 166.432C543.27 165.481 542.478 164.368 542.264 163.192L538.329 163.908ZM567.002 128.418C567.592 129.271 567.811 130.067 567.774 130.853C567.735 131.667 567.414 132.646 566.628 133.812L569.945 136.048C571.019 134.454 571.687 132.778 571.769 131.042C571.852 129.278 571.32 127.629 570.291 126.142L567.002 128.418ZM566.611 133.837C565.027 136.266 561.808 139.268 556.702 142.83L558.991 146.11C564.205 142.472 567.945 139.114 569.962 136.023L566.611 133.837ZM556.763 146.151C559.358 147.823 561.971 149.853 564.599 152.248L567.293 149.292C564.522 146.767 561.735 144.597 558.93 142.789L556.763 146.151ZM564.599 152.248C565.933 153.463 566.986 154.474 567.77 155.286C568.579 156.125 569.018 156.668 569.2 156.96L572.592 154.84C572.175 154.172 571.488 153.38 570.648 152.509C569.782 151.611 568.66 150.537 567.293 149.292L564.599 152.248ZM569.36 157.18C569.439 157.275 569.65 157.605 569.469 158.602L573.404 159.318C573.703 157.675 573.554 155.965 572.433 154.62L569.36 157.18ZM569.455 158.69C569.296 159.852 568.973 161.162 568.466 162.626L572.246 163.934C572.82 162.278 573.217 160.708 573.418 159.23L569.455 158.69ZM568.451 162.67C568.054 163.913 567.334 165.279 566.229 166.77L569.443 169.15C570.739 167.401 571.699 165.647 572.261 163.89L568.451 162.67ZM566.229 166.77C565.103 168.29 563.868 169.665 562.525 170.896L565.228 173.844C566.765 172.435 568.17 170.87 569.443 169.15L566.229 166.77ZM562.528 170.893C561.385 171.937 559.896 172.801 558.008 173.448L559.305 177.232C561.616 176.439 563.608 175.323 565.225 173.847L562.528 170.893ZM557.942 173.472C556.169 174.15 554.319 174.438 552.374 174.333L552.158 178.327C554.653 178.462 557.064 178.09 559.371 177.208L557.942 173.472ZM552.366 174.332C552.381 174.333 552.17 174.309 551.606 174.106C551.092 173.92 550.413 173.634 549.556 173.235C547.846 172.437 545.536 171.24 542.612 169.628L540.681 173.132C543.637 174.76 546.037 176.008 547.866 176.86C548.78 177.286 549.578 177.626 550.249 177.868C550.87 178.092 551.552 178.297 552.166 178.328L552.366 174.332ZM542.619 169.633C539.731 168.025 537.517 166.692 535.952 165.63C535.169 165.099 534.577 164.654 534.156 164.293C533.946 164.113 533.794 163.967 533.688 163.853C533.578 163.735 533.546 163.682 533.551 163.691L530.121 165.749C530.47 166.33 531.008 166.863 531.553 167.33C532.129 167.824 532.854 168.361 533.705 168.94C535.411 170.098 537.742 171.495 540.674 173.127L542.619 169.633ZM533.538 163.669C532.453 161.913 531.957 160.177 531.969 158.434C531.981 156.68 532.509 154.791 533.667 152.745L530.186 150.775C528.763 153.289 527.987 155.84 527.969 158.406C527.951 160.983 528.7 163.447 530.135 165.771L533.538 163.669ZM533.667 152.745C535.997 148.627 539.672 145.483 544.84 143.349L543.313 139.651C537.44 142.077 533.016 145.773 530.186 150.775L533.667 152.745ZM545.144 139.809C541.522 137.523 538.778 135.564 536.874 133.93C534.879 132.218 534.099 131.102 533.923 130.548L530.109 131.752C530.654 133.478 532.244 135.227 534.269 136.965C536.384 138.781 539.311 140.857 543.009 143.191L545.144 139.809ZM533.914 130.518C533.718 129.931 533.726 128.83 534.496 126.961L530.797 125.438C529.886 127.65 529.475 129.849 530.119 131.782L533.914 130.518ZM534.503 126.943C535.255 125.063 536.4 123.169 537.97 121.261L534.882 118.719C533.093 120.891 531.718 123.137 530.789 125.457L534.503 126.943ZM537.988 121.239C539.448 119.414 541.471 117.848 544.131 116.574L542.402 112.966C539.301 114.452 536.764 116.366 534.865 118.741L537.988 121.239ZM544.146 116.566C546.781 115.275 549.531 114.716 552.425 114.877L552.647 110.883C549.062 110.684 545.631 111.385 542.387 112.974L544.146 116.566ZM552.419 114.877C552.184 114.863 552.199 114.794 552.621 115.034C552.973 115.235 553.458 115.561 554.09 116.044C555.349 117.006 557.042 118.471 559.184 120.464L561.909 117.536C559.731 115.509 557.929 113.944 556.518 112.866C555.815 112.329 555.171 111.883 554.6 111.558C554.1 111.273 553.399 110.927 552.654 110.883L552.419 114.877ZM559.194 120.473C563.615 124.531 566.128 127.133 566.992 128.405L570.3 126.155C569.125 124.427 566.238 121.509 561.899 117.527L559.194 120.473ZM625.126 121.16L624.572 119.238L623.12 119.657L623.126 121.169L625.126 121.16ZM625.216 141.41L623.216 141.419L623.225 143.41H625.216V141.41ZM637.186 139.7L637.829 141.594L637.844 141.589L637.859 141.583L637.186 139.7ZM644.566 135.38L646.032 136.741L646.044 136.728L646.055 136.715L644.566 135.38ZM647.986 129.89L646.114 129.188L646.114 129.188L647.986 129.89ZM648.706 124.67L646.719 124.899L646.724 124.937L646.73 124.974L648.706 124.67ZM647.446 121.25L648.921 119.899L648.909 119.885L648.896 119.872L647.446 121.25ZM641.956 119L641.667 120.979L641.693 120.983L641.72 120.986L641.956 119ZM634.036 119.18L634.331 121.158L634.351 121.155L634.372 121.152L634.036 119.18ZM625.216 145.91L625.786 143.993L623.205 143.226L623.216 145.918L625.216 145.91ZM625.306 168.32L623.306 168.328L623.313 170.129L625.105 170.31L625.306 168.32ZM648.796 162.83L650.175 164.279L650.184 164.271L648.796 162.83ZM652.306 152.3L650.356 152.743L650.357 152.75L652.306 152.3ZM647.806 145.91L648.925 144.252L648.022 143.643L647.021 144.071L647.806 145.91ZM625.306 173.09L625.747 171.139L625.739 171.137L625.306 173.09ZM612.706 170.3H610.706V171.906L612.274 172.253L612.706 170.3ZM612.706 112.79L612.172 110.863L610.706 111.269V112.79H612.706ZM630.796 110.54L630.763 108.54L630.762 108.54L630.796 110.54ZM643.666 111.98L642.466 113.58L642.523 113.622L642.582 113.661L643.666 111.98ZM651.136 118.28L649.75 119.722L649.757 119.728L649.764 119.735L651.136 118.28ZM658.606 125.93L660.307 124.877L660.225 124.746L660.125 124.628L658.606 125.93ZM657.796 137.09L659.549 138.054L659.554 138.045L659.559 138.036L657.796 137.09ZM652.486 143.21L651.279 141.615L648.881 143.43L651.482 144.94L652.486 143.21ZM664.366 152.66L665.89 151.365L665.879 151.352L665.868 151.339L664.366 152.66ZM665.536 157.79L663.548 157.575L663.548 157.575L665.536 157.79ZM662.746 164.72L661.089 163.601L661.089 163.601L662.746 164.72ZM655.366 171.11L654.384 169.368L654.377 169.372L654.371 169.375L655.366 171.11ZM643.036 174.62L642.844 172.629L642.831 172.63L642.818 172.632L643.036 174.62ZM623.126 121.169L623.216 141.419L627.216 141.401L627.126 121.151L623.126 121.169ZM625.216 143.41C629.992 143.41 634.21 142.822 637.829 141.594L636.544 137.806C633.442 138.858 629.68 139.41 625.216 139.41V143.41ZM637.859 141.583C641.369 140.33 644.165 138.751 646.032 136.741L643.101 134.019C641.848 135.369 639.723 136.67 636.514 137.817L637.859 141.583ZM646.055 136.715C647.759 134.815 649.04 132.775 649.859 130.592L646.114 129.188C645.492 130.845 644.494 132.465 643.077 134.045L646.055 136.715ZM649.859 130.592C650.664 128.445 650.988 126.351 650.683 124.366L646.73 124.974C646.904 126.109 646.748 127.495 646.114 129.188L649.859 130.592ZM650.693 124.441C650.492 122.696 649.992 121.067 648.921 119.899L645.972 122.601C646.221 122.873 646.561 123.524 646.719 124.899L650.693 124.441ZM648.896 119.872C647.303 118.195 644.94 117.341 642.193 117.014L641.72 120.986C644.012 121.259 645.31 121.905 645.996 122.627L648.896 119.872ZM642.246 117.021C639.55 116.627 636.697 116.698 633.701 117.208L634.372 121.152C637.016 120.702 639.443 120.653 641.667 120.979L642.246 117.021ZM633.742 117.202C630.823 117.637 627.766 118.317 624.572 119.238L625.681 123.082C628.727 122.203 631.61 121.563 634.331 121.158L633.742 117.202ZM623.216 145.918L623.306 168.328L627.306 168.312L627.216 145.902L623.216 145.918ZM625.105 170.31C636.041 171.416 644.583 169.601 650.175 164.279L647.417 161.381C643.05 165.539 635.932 167.384 625.507 166.33L625.105 170.31ZM650.184 164.271C653.855 160.735 655.335 156.531 654.255 151.85L650.357 152.75C651.077 155.869 650.218 158.685 647.409 161.389L650.184 164.271ZM654.257 151.857C653.536 148.684 651.714 146.135 648.925 144.252L646.687 147.568C648.698 148.925 649.877 150.636 650.356 152.743L654.257 151.857ZM647.021 144.071C641.407 146.469 634.387 146.55 625.786 143.993L624.646 147.827C633.805 150.55 641.845 150.631 648.592 147.749L647.021 144.071ZM625.739 171.137L613.139 168.347L612.274 172.253L624.874 175.043L625.739 171.137ZM614.706 170.3V112.79H610.706V170.3H614.706ZM613.24 114.717C618.01 113.396 623.862 112.658 630.83 112.54L630.762 108.54C623.571 108.662 617.363 109.424 612.172 110.863L613.24 114.717ZM630.83 112.54C634.362 112.48 637.123 112.571 639.146 112.798C640.158 112.911 640.943 113.053 641.526 113.212C642.137 113.378 642.397 113.528 642.466 113.58L644.866 110.38C644.215 109.892 643.4 109.577 642.577 109.353C641.728 109.122 640.724 108.949 639.591 108.822C637.324 108.569 634.371 108.48 630.763 108.54L630.83 112.54ZM642.582 113.661C644.275 114.753 646.653 116.743 649.75 119.722L652.522 116.838C649.38 113.817 646.778 111.607 644.751 110.299L642.582 113.661ZM649.764 119.735C652.918 122.711 655.352 125.207 657.088 127.232L660.125 124.628C658.26 122.453 655.714 119.849 652.509 116.825L649.764 119.735ZM656.906 126.983C657.446 127.855 657.776 129.028 657.776 130.61H661.776C661.776 128.472 661.327 126.525 660.307 124.877L656.906 126.983ZM657.776 130.61C657.776 132.016 657.27 133.841 656.034 136.144L659.559 138.036C660.963 135.419 661.776 132.924 661.776 130.61H657.776ZM656.044 136.126C654.862 138.276 653.279 140.102 651.279 141.615L653.693 144.805C656.134 142.958 658.091 140.704 659.549 138.054L656.044 136.126ZM651.482 144.94C656.194 147.674 659.974 150.693 662.864 153.981L665.868 151.339C662.639 147.667 658.499 144.386 653.49 141.48L651.482 144.94ZM662.842 153.955C663.38 154.587 663.754 155.669 663.548 157.575L667.525 158.005C667.799 155.471 667.393 153.133 665.89 151.365L662.842 153.955ZM663.548 157.575C663.352 159.389 662.579 161.393 661.089 163.601L664.404 165.839C666.154 163.247 667.241 160.631 667.525 158.005L663.548 157.575ZM661.089 163.601C659.687 165.677 657.494 167.615 654.384 169.368L656.348 172.852C659.839 170.885 662.565 168.563 664.404 165.839L661.089 163.601ZM654.371 169.375C651.446 171.054 647.632 172.168 642.844 172.629L643.228 176.611C648.4 176.112 652.807 174.886 656.362 172.845L654.371 169.375ZM642.818 172.632C638.191 173.14 632.516 172.67 625.747 171.139L624.865 175.041C631.897 176.63 638.042 177.18 643.254 176.608L642.818 172.632ZM678.436 141.41L676.717 142.431L677.298 143.41H678.436V141.41ZM673.576 133.22L673.078 131.283L670.496 131.947L671.857 134.241L673.576 133.22ZM687.526 130.16L687.161 128.194L687.157 128.195L687.526 130.16ZM697.246 128.81L697.337 126.812L697.337 126.812L697.246 128.81ZM705.166 134.75L703.763 136.175L703.769 136.18L703.774 136.186L705.166 134.75ZM713.176 143.57L714.841 142.461L714.833 142.449L713.176 143.57ZM713.626 164.9L711.628 164.832L711.627 164.843L711.627 164.855L713.626 164.9ZM713.536 175.61L713.081 177.557L715.619 178.151L715.535 175.546L713.536 175.61ZM702.376 173L700.377 172.961L700.345 174.579L701.921 174.947L702.376 173ZM702.466 168.41L704.466 168.449L704.563 163.485L701.052 166.996L702.466 168.41ZM690.586 175.7L690.545 177.7L690.566 177.7H690.586V175.7ZM679.606 167.51L681.151 166.24L679.606 167.51ZM685.906 147.17L686.361 149.118L686.373 149.115L686.384 149.112L685.906 147.17ZM695.626 145.1L695.962 147.072L695.962 147.072L695.626 145.1ZM702.826 144.11L703.008 146.102L704.76 145.942L704.825 144.184L702.826 144.11ZM702.916 141.68L704.915 141.754L704.916 141.738L704.916 141.722L702.916 141.68ZM698.326 137L698.48 135.006L698.466 135.005L698.451 135.004L698.326 137ZM680.146 140.87V142.87H680.439L680.719 142.786L680.146 140.87ZM680.056 140.87V138.87H679.228L678.642 139.456L680.056 140.87ZM679.966 140.96V142.96H680.795L681.381 142.374L679.966 140.96ZM679.786 140.96V138.96H678.958L678.372 139.546L679.786 140.96ZM679.696 141.05V143.05H680.525L681.111 142.464L679.696 141.05ZM679.516 141.05V139.05H678.688L678.102 139.636L679.516 141.05ZM679.426 141.14V143.14H680.255L680.841 142.554L679.426 141.14ZM679.246 141.14V139.14H678.418L677.832 139.726L679.246 141.14ZM679.156 141.23V143.23H679.985L680.571 142.644L679.156 141.23ZM678.886 141.23V139.23H678.058L677.472 139.816L678.886 141.23ZM678.796 141.32V143.32H679.625L680.211 142.734L678.796 141.32ZM678.616 141.32V139.32H677.788L677.202 139.906L678.616 141.32ZM678.526 141.41V143.41H679.355L679.941 142.824L678.526 141.41ZM682.936 164L684.619 162.918L684.616 162.913L682.936 164ZM685.996 165.62L686.312 163.645L686.312 163.645L685.996 165.62ZM692.746 164.45L693.39 166.344L693.401 166.34L693.412 166.336L692.746 164.45ZM702.646 158.87L703.842 160.473L704.635 159.882L704.646 158.893L702.646 158.87ZM702.736 150.95L704.736 150.973L704.767 148.274L702.176 149.03L702.736 150.95ZM680.156 140.389L675.296 132.199L671.857 134.241L676.717 142.431L680.156 140.389ZM674.075 135.157C678.225 134.09 682.831 133.079 687.896 132.125L687.157 128.195C682.022 129.161 677.328 130.19 673.078 131.283L674.075 135.157ZM687.892 132.126C690.458 131.649 692.524 131.303 694.102 131.083C695.726 130.858 696.7 130.787 697.156 130.808L697.337 126.812C696.473 126.773 695.167 126.897 693.551 127.122C691.889 127.352 689.755 127.711 687.161 128.194L687.892 132.126ZM697.156 130.808C697.066 130.804 697.177 130.791 697.568 130.993C697.929 131.179 698.408 131.483 699.016 131.94C700.233 132.852 701.81 134.252 703.763 136.175L706.57 133.325C704.563 131.348 702.84 129.808 701.416 128.74C700.705 128.207 700.029 127.761 699.4 127.437C698.801 127.129 698.087 126.846 697.337 126.812L697.156 130.808ZM703.774 136.186C707.726 140.018 710.265 142.835 711.52 144.691L714.833 142.449C713.328 140.225 710.527 137.162 706.559 133.314L703.774 136.186ZM711.512 144.679C711.427 144.551 711.467 144.551 711.542 144.876C711.606 145.158 711.671 145.568 711.726 146.129C711.837 147.249 711.896 148.817 711.896 150.86H715.896C715.896 148.763 715.836 147.046 715.707 145.736C715.642 145.082 715.557 144.491 715.441 143.985C715.336 143.523 715.166 142.949 714.841 142.461L711.512 144.679ZM711.896 150.86C711.896 154.912 711.807 159.568 711.628 164.832L715.625 164.968C715.806 159.672 715.896 154.968 715.896 150.86H711.896ZM711.627 164.855C711.507 170.128 711.475 173.751 711.538 175.674L715.535 175.546C715.477 173.749 715.506 170.232 715.626 164.945L711.627 164.855ZM713.992 173.663L702.832 171.053L701.921 174.947L713.081 177.557L713.992 173.663ZM704.376 173.039L704.466 168.449L700.467 168.371L700.377 172.961L704.376 173.039ZM701.052 166.996C698.686 169.362 696.605 171.069 694.805 172.173C692.989 173.287 691.603 173.7 690.586 173.7V177.7C692.63 177.7 694.754 176.898 696.898 175.582C699.058 174.256 701.387 172.318 703.881 169.824L701.052 166.996ZM690.628 173.7C689.784 173.683 688.554 173.255 686.877 172.004C685.226 170.772 683.317 168.874 681.151 166.24L678.062 168.78C680.336 171.546 682.477 173.713 684.486 175.211C686.469 176.69 688.509 177.657 690.545 177.7L690.628 173.7ZM681.151 166.24C678.967 163.584 677.379 161.362 676.346 159.562C675.279 157.701 674.946 156.528 674.946 155.9H670.946C670.946 157.612 671.724 159.544 672.877 161.553C674.064 163.623 675.806 166.036 678.062 168.78L681.151 166.24ZM674.946 155.9C674.946 155.075 675.483 153.892 677.779 152.471L675.674 149.069C672.93 150.768 670.946 153.005 670.946 155.9H674.946ZM677.779 152.471C680.075 151.049 682.922 149.92 686.361 149.118L685.452 145.222C681.691 146.1 678.418 147.371 675.674 149.069L677.779 152.471ZM686.384 149.112C690.011 148.22 693.202 147.541 695.962 147.072L695.291 143.128C692.411 143.619 689.122 144.32 685.429 145.228L686.384 149.112ZM695.962 147.072C698.751 146.597 701.096 146.276 703.008 146.102L702.645 142.118C700.597 142.304 698.142 142.643 695.291 143.128L695.962 147.072ZM704.825 144.184L704.915 141.754L700.918 141.606L700.828 144.036L704.825 144.184ZM704.916 141.722C704.954 139.922 704.492 138.225 703.242 136.95C702.017 135.701 700.317 135.147 698.48 135.006L698.173 138.994C699.456 139.093 700.081 139.439 700.386 139.75C700.665 140.035 700.939 140.558 700.917 141.638L704.916 141.722ZM698.451 135.004C696.72 134.896 694.258 135.227 691.205 135.876C688.102 136.537 684.221 137.566 679.574 138.954L680.719 142.786C685.312 141.414 689.081 140.418 692.038 139.789C695.045 139.148 697.053 138.924 698.202 138.996L698.451 135.004ZM680.146 138.87H680.056V142.87H680.146V138.87ZM678.642 139.456L678.552 139.546L681.381 142.374L681.471 142.284L678.642 139.456ZM679.966 138.96H679.876V142.96H679.966V138.96ZM679.876 138.96H679.786V142.96H679.876V138.96ZM678.372 139.546L678.282 139.636L681.111 142.464L681.201 142.374L678.372 139.546ZM679.696 139.05H679.606V143.05H679.696V139.05ZM679.606 139.05H679.516V143.05H679.606V139.05ZM678.102 139.636L678.012 139.726L680.841 142.554L680.931 142.464L678.102 139.636ZM679.426 139.14H679.336V143.14H679.426V139.14ZM679.336 139.14H679.246V143.14H679.336V139.14ZM677.832 139.726L677.742 139.816L680.571 142.644L680.661 142.554L677.832 139.726ZM679.156 139.23H679.066V143.23H679.156V139.23ZM679.066 139.23H678.976V143.23H679.066V139.23ZM678.976 139.23H678.886V143.23H678.976V139.23ZM677.472 139.816L677.382 139.906L680.211 142.734L680.301 142.644L677.472 139.816ZM678.796 139.32H678.706V143.32H678.796V139.32ZM678.706 139.32H678.616V143.32H678.706V139.32ZM677.202 139.906L677.112 139.996L679.941 142.824L680.031 142.734L677.202 139.906ZM678.526 139.41H678.436V143.41H678.526V139.41ZM681.254 165.082C682.232 166.603 683.912 167.312 685.681 167.595L686.312 163.645C685.081 163.448 684.721 163.077 684.619 162.918L681.254 165.082ZM685.681 167.595C687.697 167.917 690.348 167.378 693.39 166.344L692.103 162.556C689.145 163.562 687.296 163.803 686.312 163.645L685.681 167.595ZM693.412 166.336C696.717 165.17 700.195 163.193 703.842 160.473L701.451 157.267C698.018 159.827 694.896 161.57 692.081 162.564L693.412 166.336ZM704.646 158.893L704.736 150.973L700.737 150.927L700.647 158.847L704.646 158.893ZM702.176 149.03C694.226 151.349 688.371 153.658 684.806 156.008C683.038 157.173 681.605 158.493 680.879 160.039C680.075 161.75 680.242 163.517 681.257 165.087L684.616 162.913C684.311 162.443 684.313 162.136 684.499 161.74C684.763 161.178 685.475 160.357 687.007 159.347C690.042 157.347 695.407 155.171 703.296 152.87L702.176 149.03ZM735.826 111.62H737.826V110.018L736.263 109.668L735.826 111.62ZM735.826 175.61L735.389 177.562L737.826 178.108V175.61H735.826ZM724.576 173.09H722.576V174.692L724.139 175.042L724.576 173.09ZM724.576 109.1L725.013 107.148L722.576 106.602V109.1H724.576ZM733.826 111.62V175.61H737.826V111.62H733.826ZM736.263 173.658L725.013 171.138L724.139 175.042L735.389 177.562L736.263 173.658ZM726.576 173.09V109.1H722.576V173.09H726.576ZM724.139 111.052L735.389 113.572L736.263 109.668L725.013 107.148L724.139 111.052ZM757.535 111.62H759.535V110.018L757.972 109.668L757.535 111.62ZM757.535 175.61L757.098 177.562L759.535 178.108V175.61H757.535ZM746.285 173.09H744.285V174.692L745.848 175.042L746.285 173.09ZM746.285 109.1L746.722 107.148L744.285 106.602V109.1H746.285ZM755.535 111.62V175.61H759.535V111.62H755.535ZM757.972 173.658L746.722 171.138L745.848 175.042L757.098 177.562L757.972 173.658ZM748.285 173.09V109.1H744.285V173.09H748.285ZM745.848 111.052L757.098 113.572L757.972 109.668L746.722 107.148L745.848 111.052ZM812.509 121.16L811.955 119.238L810.502 119.657L810.509 121.169L812.509 121.16ZM812.599 141.41L810.599 141.419L810.608 143.41H812.599V141.41ZM824.569 139.7L825.212 141.594L825.227 141.589L825.242 141.583L824.569 139.7ZM831.949 135.38L833.415 136.741L833.427 136.728L833.438 136.715L831.949 135.38ZM835.369 129.89L833.496 129.188L833.496 129.188L835.369 129.89ZM836.089 124.67L834.102 124.899L834.107 124.937L834.112 124.974L836.089 124.67ZM834.829 121.25L836.303 119.899L836.291 119.885L836.279 119.872L834.829 121.25ZM829.339 119L829.049 120.979L829.076 120.983L829.103 120.986L829.339 119ZM821.419 119.18L821.714 121.158L821.734 121.155L821.755 121.152L821.419 119.18ZM812.599 145.91L813.169 143.993L810.588 143.226L810.599 145.918L812.599 145.91ZM812.689 168.32L810.689 168.328L810.696 170.129L812.488 170.31L812.689 168.32ZM836.179 162.83L837.558 164.279L837.566 164.271L836.179 162.83ZM839.689 152.3L837.739 152.743L837.74 152.75L839.689 152.3ZM835.189 145.91L836.308 144.252L835.405 143.643L834.403 144.071L835.189 145.91ZM812.689 173.09L813.13 171.139L813.121 171.137L812.689 173.09ZM800.089 170.3H798.089V171.906L799.657 172.253L800.089 170.3ZM800.089 112.79L799.555 110.863L798.089 111.269V112.79H800.089ZM818.179 110.54L818.145 108.54L818.145 108.54L818.179 110.54ZM831.049 111.98L829.849 113.58L829.906 113.622L829.965 113.661L831.049 111.98ZM838.519 118.28L837.133 119.722L837.14 119.728L837.147 119.735L838.519 118.28ZM845.989 125.93L847.69 124.877L847.608 124.746L847.508 124.628L845.989 125.93ZM845.179 137.09L846.931 138.054L846.936 138.045L846.941 138.036L845.179 137.09ZM839.869 143.21L838.662 141.615L836.264 143.43L838.865 144.94L839.869 143.21ZM851.749 152.66L853.273 151.365L853.262 151.352L853.251 151.339L851.749 152.66ZM852.919 157.79L850.931 157.575L850.931 157.575L852.919 157.79ZM850.129 164.72L848.471 163.601L848.471 163.601L850.129 164.72ZM842.749 171.11L841.767 169.368L841.76 169.372L841.753 169.375L842.749 171.11ZM830.419 174.62L830.227 172.629L830.214 172.63L830.201 172.632L830.419 174.62ZM810.509 121.169L810.599 141.419L814.599 141.401L814.509 121.151L810.509 121.169ZM812.599 143.41C817.375 143.41 821.593 142.822 825.212 141.594L823.926 137.806C820.825 138.858 817.063 139.41 812.599 139.41V143.41ZM825.242 141.583C828.752 140.33 831.548 138.751 833.415 136.741L830.483 134.019C829.23 135.369 827.106 136.67 823.896 137.817L825.242 141.583ZM833.438 136.715C835.141 134.815 836.423 132.775 837.242 130.592L833.496 129.188C832.875 130.845 831.877 132.465 830.46 134.045L833.438 136.715ZM837.242 130.592C838.047 128.445 838.371 126.351 838.066 124.366L834.112 124.974C834.287 126.109 834.131 127.495 833.496 129.188L837.242 130.592ZM838.076 124.441C837.875 122.696 837.374 121.067 836.303 119.899L833.355 122.601C833.604 122.873 833.944 123.524 834.102 124.899L838.076 124.441ZM836.279 119.872C834.686 118.195 832.323 117.341 829.575 117.014L829.103 120.986C831.395 121.259 832.693 121.905 833.379 122.627L836.279 119.872ZM829.629 117.021C826.933 116.627 824.08 116.698 821.083 117.208L821.755 121.152C824.398 120.702 826.826 120.653 829.049 120.979L829.629 117.021ZM821.124 117.202C818.206 117.637 815.148 118.317 811.955 119.238L813.063 123.082C816.11 122.203 818.992 121.563 821.714 121.158L821.124 117.202ZM810.599 145.918L810.689 168.328L814.689 168.312L814.599 145.902L810.599 145.918ZM812.488 170.31C823.424 171.416 831.966 169.601 837.558 164.279L834.8 161.381C830.432 165.539 823.314 167.384 812.89 166.33L812.488 170.31ZM837.566 164.271C841.238 160.735 842.718 156.531 841.638 151.85L837.74 152.75C838.46 155.869 837.6 158.685 834.792 161.389L837.566 164.271ZM841.639 151.857C840.918 148.684 839.097 146.135 836.308 144.252L834.07 147.568C836.081 148.925 837.26 150.636 837.739 152.743L841.639 151.857ZM834.403 144.071C828.79 146.469 821.77 146.55 813.169 143.993L812.029 147.827C821.188 150.55 829.228 150.631 835.975 147.749L834.403 144.071ZM813.121 171.137L800.521 168.347L799.657 172.253L812.257 175.043L813.121 171.137ZM802.089 170.3V112.79H798.089V170.3H802.089ZM800.623 114.717C805.393 113.396 811.244 112.658 818.213 112.54L818.145 108.54C810.954 108.662 804.745 109.424 799.555 110.863L800.623 114.717ZM818.213 112.54C821.745 112.48 824.506 112.571 826.529 112.798C827.541 112.911 828.326 113.053 828.909 113.212C829.52 113.378 829.78 113.528 829.849 113.58L832.249 110.38C831.598 109.892 830.782 109.577 829.96 109.353C829.111 109.122 828.107 108.949 826.974 108.822C824.707 108.569 821.753 108.48 818.145 108.54L818.213 112.54ZM829.965 113.661C831.658 114.753 834.035 116.743 837.133 119.722L839.905 116.838C836.763 113.817 834.16 111.607 832.133 110.299L829.965 113.661ZM837.147 119.735C840.301 122.711 842.735 125.207 844.471 127.232L847.508 124.628C845.643 122.453 843.097 119.849 839.892 116.825L837.147 119.735ZM844.289 126.983C844.828 127.855 845.159 129.028 845.159 130.61H849.159C849.159 128.472 848.71 126.525 847.69 124.877L844.289 126.983ZM845.159 130.61C845.159 132.016 844.653 133.841 843.417 136.144L846.941 138.036C848.346 135.419 849.159 132.924 849.159 130.61H845.159ZM843.427 136.126C842.244 138.276 840.662 140.102 838.662 141.615L841.076 144.805C843.516 142.958 845.474 140.704 846.931 138.054L843.427 136.126ZM838.865 144.94C843.577 147.674 847.357 150.693 850.247 153.981L853.251 151.339C850.022 147.667 845.882 144.386 840.873 141.48L838.865 144.94ZM850.225 153.955C850.762 154.587 851.137 155.669 850.931 157.575L854.907 158.005C855.181 155.471 854.776 153.133 853.273 151.365L850.225 153.955ZM850.931 157.575C850.734 159.389 849.962 161.393 848.471 163.601L851.787 165.839C853.537 163.247 854.624 160.631 854.907 158.005L850.931 157.575ZM848.471 163.601C847.07 165.677 844.877 167.615 841.767 169.368L843.731 172.852C847.221 170.885 849.948 168.563 851.787 165.839L848.471 163.601ZM841.753 169.375C838.829 171.054 835.015 172.168 830.227 172.629L830.611 176.611C835.783 176.112 840.189 174.886 843.745 172.845L841.753 169.375ZM830.201 172.632C825.574 173.14 819.899 172.67 813.13 171.139L812.248 175.041C819.279 176.63 825.425 177.18 830.637 176.608L830.201 172.632ZM873.289 132.5H875.289V130.898L873.726 130.548L873.289 132.5ZM873.289 139.16H871.289V146.043L874.978 140.232L873.289 139.16ZM892.009 131.15L891.203 132.98L891.216 132.986L891.229 132.992L892.009 131.15ZM900.919 135.83L902.565 136.966L903.713 135.303L902.038 134.172L900.919 135.83ZM894.709 144.83L893.518 146.436L895.18 147.67L896.355 145.966L894.709 144.83ZM884.989 140.33L884.768 142.318L884.792 142.32L884.816 142.322L884.989 140.33ZM878.509 141.95L879.773 143.5L879.79 143.487L879.806 143.472L878.509 141.95ZM873.289 148.43L871.589 147.376L871.289 147.86V148.43H873.289ZM873.289 175.61L872.852 177.562L875.289 178.108V175.61H873.289ZM862.039 173.09H860.039V174.692L861.602 175.042L862.039 173.09ZM862.039 129.98L862.476 128.028L860.039 127.482V129.98H862.039ZM871.289 132.5V139.16H875.289V132.5H871.289ZM874.978 140.232C877.124 136.85 879.043 134.423 880.724 132.864C882.443 131.27 883.666 130.81 884.449 130.81V126.81C882.172 126.81 880.006 128.075 878.004 129.931C875.966 131.822 873.834 134.57 871.601 138.088L874.978 140.232ZM884.449 130.81C884.902 130.81 885.683 130.937 886.873 131.306C888.035 131.665 889.474 132.218 891.203 132.98L892.816 129.32C891.005 128.522 889.414 127.905 888.056 127.484C886.726 127.073 885.496 126.81 884.449 126.81V130.81ZM891.229 132.992C894.686 134.457 897.535 135.959 899.8 137.488L902.038 134.172C899.503 132.461 896.412 130.843 892.79 129.308L891.229 132.992ZM899.273 134.694L893.063 143.694L896.355 145.966L902.565 136.966L899.273 134.694ZM895.901 143.224C892.062 140.375 888.463 138.624 885.163 138.338L884.816 142.322C887.036 142.516 889.917 143.765 893.518 146.436L895.901 143.224ZM885.21 138.342C882.122 137.999 879.361 138.597 877.212 140.428L879.806 143.472C880.897 142.543 882.456 142.061 884.768 142.318L885.21 138.342ZM877.246 140.4C875.376 141.924 873.497 144.299 871.589 147.376L874.989 149.484C876.801 146.561 878.403 144.616 879.773 143.5L877.246 140.4ZM871.289 148.43V175.61H875.289V148.43H871.289ZM873.726 173.658L862.476 171.138L861.602 175.042L872.852 177.562L873.726 173.658ZM864.039 173.09V129.98H860.039V173.09H864.039ZM861.602 131.932L872.852 134.452L873.726 130.548L862.476 128.028L861.602 131.932ZM910.204 141.41L908.484 142.431L909.065 143.41H910.204V141.41ZM905.344 133.22L904.846 131.283L902.263 131.947L903.624 134.241L905.344 133.22ZM919.294 130.16L918.928 128.194L918.924 128.195L919.294 130.16ZM929.014 128.81L929.105 126.812L929.105 126.812L929.014 128.81ZM936.934 134.75L935.531 136.175L935.536 136.18L935.542 136.186L936.934 134.75ZM944.944 143.57L946.608 142.461L946.601 142.449L944.944 143.57ZM945.394 164.9L943.395 164.832L943.395 164.843L943.395 164.855L945.394 164.9ZM945.304 175.61L944.849 177.557L947.387 178.151L947.303 175.546L945.304 175.61ZM934.144 173L932.144 172.961L932.113 174.579L933.689 174.947L934.144 173ZM934.234 168.41L936.234 168.449L936.331 163.485L932.82 166.996L934.234 168.41ZM922.354 175.7L922.312 177.7L922.333 177.7H922.354V175.7ZM911.374 167.51L912.919 166.24L911.374 167.51ZM917.674 147.17L918.129 149.118L918.14 149.115L918.152 149.112L917.674 147.17ZM927.394 145.1L927.73 147.072L927.73 147.072L927.394 145.1ZM934.594 144.11L934.775 146.102L936.528 145.942L936.593 144.184L934.594 144.11ZM934.684 141.68L936.683 141.754L936.683 141.738L936.684 141.722L934.684 141.68ZM930.094 137L930.247 135.006L930.233 135.005L930.219 135.004L930.094 137ZM911.914 140.87V142.87H912.206L912.486 142.786L911.914 140.87ZM911.824 140.87V138.87H910.996L910.41 139.456L911.824 140.87ZM911.734 140.96V142.96H912.562L913.148 142.374L911.734 140.96ZM911.554 140.96V138.96H910.726L910.14 139.546L911.554 140.96ZM911.464 141.05V143.05H912.292L912.878 142.464L911.464 141.05ZM911.284 141.05V139.05H910.456L909.87 139.636L911.284 141.05ZM911.194 141.14V143.14H912.022L912.608 142.554L911.194 141.14ZM911.014 141.14V139.14H910.186L909.6 139.726L911.014 141.14ZM910.924 141.23V143.23H911.752L912.338 142.644L910.924 141.23ZM910.654 141.23V139.23H909.826L909.24 139.816L910.654 141.23ZM910.564 141.32V143.32H911.392L911.978 142.734L910.564 141.32ZM910.384 141.32V139.32H909.556L908.97 139.906L910.384 141.32ZM910.294 141.41V143.41H911.123L911.708 142.824L910.294 141.41ZM914.704 164L916.386 162.918L916.383 162.913L914.704 164ZM917.764 165.62L918.08 163.645L918.08 163.645L917.764 165.62ZM924.514 164.45L925.158 166.344L925.169 166.34L925.18 166.336L924.514 164.45ZM934.414 158.87L935.61 160.473L936.403 159.882L936.414 158.893L934.414 158.87ZM934.504 150.95L936.504 150.973L936.535 148.274L933.944 149.03L934.504 150.95ZM911.924 140.389L907.064 132.199L903.624 134.241L908.484 142.431L911.924 140.389ZM905.842 135.157C909.993 134.09 914.599 133.079 919.664 132.125L918.924 128.195C913.789 129.161 909.096 130.19 904.846 131.283L905.842 135.157ZM919.66 132.126C922.225 131.649 924.292 131.303 925.869 131.083C927.493 130.858 928.468 130.787 928.923 130.808L929.105 126.812C928.24 126.773 926.935 126.897 925.319 127.122C923.656 127.352 921.523 127.711 918.928 128.194L919.66 132.126ZM928.923 130.808C928.833 130.804 928.944 130.791 929.336 130.993C929.696 131.179 930.175 131.483 930.784 131.94C932 132.852 933.578 134.252 935.531 136.175L938.337 133.325C936.33 131.348 934.608 129.808 933.184 128.74C932.473 128.207 931.797 127.761 931.167 127.437C930.569 127.129 929.855 126.846 929.105 126.812L928.923 130.808ZM935.542 136.186C939.494 140.018 942.033 142.835 943.287 144.691L946.601 142.449C945.096 140.225 942.294 137.162 938.326 133.314L935.542 136.186ZM943.28 144.679C943.194 144.551 943.235 144.551 943.309 144.876C943.374 145.158 943.438 145.568 943.494 146.129C943.604 147.249 943.664 148.817 943.664 150.86H947.664C947.664 148.763 947.604 147.046 947.474 145.736C947.41 145.082 947.324 144.491 947.209 143.985C947.103 143.523 946.934 142.949 946.608 142.461L943.28 144.679ZM943.664 150.86C943.664 154.912 943.575 159.568 943.395 164.832L947.393 164.968C947.573 159.672 947.664 154.968 947.664 150.86H943.664ZM943.395 164.855C943.275 170.128 943.243 173.751 943.305 175.674L947.303 175.546C947.245 173.749 947.273 170.232 947.394 164.945L943.395 164.855ZM945.76 173.663L934.6 171.053L933.689 174.947L944.849 177.557L945.76 173.663ZM936.144 173.039L936.234 168.449L932.234 168.371L932.144 172.961L936.144 173.039ZM932.82 166.996C930.453 169.362 928.372 171.069 926.573 172.173C924.757 173.287 923.371 173.7 922.354 173.7V177.7C924.398 177.7 926.521 176.898 928.665 175.582C930.826 174.256 933.155 172.318 935.648 169.824L932.82 166.996ZM922.396 173.7C921.552 173.683 920.321 173.255 918.645 172.004C916.993 170.772 915.084 168.874 912.919 166.24L909.829 168.78C912.104 171.546 914.245 173.713 916.253 175.211C918.237 176.69 920.276 177.657 922.312 177.7L922.396 173.7ZM912.919 166.24C910.735 163.584 909.146 161.362 908.114 159.562C907.046 157.701 906.714 156.528 906.714 155.9H902.714C902.714 157.612 903.492 159.544 904.644 161.553C905.832 163.623 907.573 166.036 909.829 168.78L912.919 166.24ZM906.714 155.9C906.714 155.075 907.25 153.892 909.547 152.471L907.441 149.069C904.698 150.768 902.714 153.005 902.714 155.9H906.714ZM909.547 152.471C911.843 151.049 914.69 149.92 918.129 149.118L917.22 145.222C913.458 146.1 910.185 147.371 907.441 149.069L909.547 152.471ZM918.152 149.112C921.778 148.22 924.97 147.541 927.73 147.072L927.058 143.128C924.179 143.619 920.89 144.32 917.196 145.228L918.152 149.112ZM927.73 147.072C930.519 146.597 932.864 146.276 934.775 146.102L934.413 142.118C932.364 142.304 929.91 142.643 927.058 143.128L927.73 147.072ZM936.593 144.184L936.683 141.754L932.685 141.606L932.595 144.036L936.593 144.184ZM936.684 141.722C936.721 139.922 936.26 138.225 935.009 136.95C933.784 135.701 932.084 135.147 930.247 135.006L929.941 138.994C931.224 139.093 931.849 139.439 932.154 139.75C932.433 140.035 932.707 140.558 932.684 141.638L936.684 141.722ZM930.219 135.004C928.488 134.896 926.025 135.227 922.973 135.876C919.87 136.537 915.988 137.566 911.342 138.954L912.486 142.786C917.08 141.414 920.848 140.418 923.805 139.789C926.813 139.148 928.82 138.924 929.969 138.996L930.219 135.004ZM911.914 138.87H911.824V142.87H911.914V138.87ZM910.41 139.456L910.32 139.546L913.148 142.374L913.238 142.284L910.41 139.456ZM911.734 138.96H911.644V142.96H911.734V138.96ZM911.644 138.96H911.554V142.96H911.644V138.96ZM910.14 139.546L910.05 139.636L912.878 142.464L912.968 142.374L910.14 139.546ZM911.464 139.05H911.374V143.05H911.464V139.05ZM911.374 139.05H911.284V143.05H911.374V139.05ZM909.87 139.636L909.78 139.726L912.608 142.554L912.698 142.464L909.87 139.636ZM911.194 139.14H911.104V143.14H911.194V139.14ZM911.104 139.14H911.014V143.14H911.104V139.14ZM909.6 139.726L909.51 139.816L912.338 142.644L912.428 142.554L909.6 139.726ZM910.924 139.23H910.834V143.23H910.924V139.23ZM910.834 139.23H910.744V143.23H910.834V139.23ZM910.744 139.23H910.654V143.23H910.744V139.23ZM909.24 139.816L909.15 139.906L911.978 142.734L912.068 142.644L909.24 139.816ZM910.564 139.32H910.474V143.32H910.564V139.32ZM910.474 139.32H910.384V143.32H910.474V139.32ZM908.97 139.906L908.88 139.996L911.708 142.824L911.798 142.734L908.97 139.906ZM910.294 139.41H910.204V143.41H910.294V139.41ZM913.022 165.082C914 166.603 915.679 167.312 917.448 167.595L918.08 163.645C916.849 163.448 916.488 163.077 916.386 162.918L913.022 165.082ZM917.448 167.595C919.464 167.917 922.115 167.378 925.158 166.344L923.87 162.556C920.913 163.562 919.064 163.803 918.08 163.645L917.448 167.595ZM925.18 166.336C928.484 165.17 931.962 163.193 935.61 160.473L933.218 157.267C929.786 159.827 926.664 161.57 923.848 162.564L925.18 166.336ZM936.414 158.893L936.504 150.973L932.504 150.927L932.414 158.847L936.414 158.893ZM933.944 149.03C925.994 151.349 920.138 153.658 916.573 156.008C914.806 157.173 913.372 158.493 912.646 160.039C911.843 161.75 912.01 163.517 913.025 165.087L916.383 162.913C916.079 162.443 916.081 162.136 916.267 161.74C916.531 161.178 917.243 160.357 918.775 159.347C921.81 157.347 927.174 155.171 935.064 152.87L933.944 149.03ZM968.044 132.5H970.044V130.885L968.465 130.545L968.044 132.5ZM968.044 136.19H966.044V140.79L969.408 137.653L968.044 136.19ZM982.084 129.08L982.209 127.084L982.203 127.084L982.084 129.08ZM992.164 136.28L990.768 137.712L990.777 137.721L990.786 137.73L992.164 136.28ZM999.904 145.73L1001.88 145.426L1001.88 145.402L1001.87 145.378L999.904 145.73ZM1000.26 175.61L999.823 177.561L1002.26 178.112V175.61H1000.26ZM989.104 173.09L987.104 173.055L987.076 174.682L988.663 175.041L989.104 173.09ZM988.654 140.42L986.886 141.356L986.894 141.37L986.901 141.384L988.654 140.42ZM983.254 138.62L983.858 140.526L983.872 140.522L983.886 140.517L983.254 138.62ZM975.514 142.94L974.286 141.361L974.277 141.368L974.269 141.375L975.514 142.94ZM968.044 150.32L966.505 149.043L966.044 149.598V150.32H968.044ZM968.044 175.61L967.623 177.565L970.044 178.087V175.61H968.044ZM956.344 173.09H954.344V174.705L955.923 175.045L956.344 173.09ZM956.344 129.98L956.765 128.025L954.344 127.503V129.98H956.344ZM966.044 132.5V136.19H970.044V132.5H966.044ZM969.408 137.653C974.646 132.768 978.796 130.887 981.965 131.076L982.203 127.084C977.331 126.793 972.122 129.652 966.68 134.727L969.408 137.653ZM981.959 131.076C982.31 131.098 983.229 131.417 984.881 132.597C986.444 133.713 988.402 135.405 990.768 137.712L993.56 134.848C991.126 132.475 989.004 130.627 987.206 129.343C985.499 128.123 983.777 127.182 982.209 127.084L981.959 131.076ZM990.786 137.73C993.189 140.014 994.982 141.892 996.197 143.375C996.804 144.116 997.241 144.728 997.534 145.219C997.839 145.732 997.921 146.004 997.935 146.082L1001.87 145.378C1001.74 144.616 1001.38 143.865 1000.97 143.17C1000.54 142.453 999.974 141.674 999.291 140.84C997.926 139.173 995.999 137.166 993.542 134.83L990.786 137.73ZM997.927 146.034C997.965 146.279 998.016 147.06 998.062 148.537C998.107 149.959 998.144 151.909 998.174 154.394C998.234 159.362 998.264 166.433 998.264 175.61H1002.26C1002.26 166.427 1002.23 159.338 1002.17 154.346C1002.14 151.851 1002.11 149.871 1002.06 148.413C1002.02 147.01 1001.96 145.961 1001.88 145.426L997.927 146.034ZM1000.7 173.659L989.544 171.139L988.663 175.041L999.823 177.561L1000.7 173.659ZM991.104 173.125C991.284 162.829 991.337 154.937 991.261 149.46C991.223 146.725 991.154 144.567 991.049 143.003C990.997 142.224 990.934 141.561 990.856 141.033C990.795 140.614 990.686 139.965 990.406 139.456L986.901 141.384C986.786 141.175 986.827 141.129 986.899 141.615C986.954 141.993 987.009 142.538 987.058 143.271C987.155 144.729 987.224 146.805 987.262 149.515C987.336 154.928 987.284 162.771 987.104 173.055L991.104 173.125ZM990.421 139.484C989.696 138.114 988.616 137.039 987.126 136.543C985.68 136.061 984.132 136.219 982.621 136.723L983.886 140.517C984.896 140.181 985.508 140.219 985.861 140.337C986.172 140.441 986.532 140.686 986.886 141.356L990.421 139.484ZM982.649 136.714C979.904 137.584 977.115 139.161 974.286 141.361L976.742 144.519C979.312 142.519 981.684 141.216 983.858 140.526L982.649 136.714ZM974.269 141.375C971.512 143.567 968.925 146.126 966.505 149.043L969.583 151.597C971.843 148.874 974.235 146.513 976.759 144.505L974.269 141.375ZM966.044 150.32V175.61H970.044V150.32H966.044ZM968.465 173.655L956.765 171.135L955.923 175.045L967.623 177.565L968.465 173.655ZM958.344 173.09V129.98H954.344V173.09H958.344ZM955.923 131.935L967.623 134.455L968.465 130.545L956.765 128.025L955.923 131.935ZM1022.83 168.41L1023.73 166.626L1023.72 166.621L1022.83 168.41ZM1040.02 164.9L1041.17 166.534L1042.02 165.937V164.9H1040.02ZM1040.02 139.61H1042.02V138.464L1041.03 137.885L1040.02 139.61ZM1032.73 137.54L1032.95 135.553L1032.94 135.551L1032.92 135.549L1032.73 137.54ZM1025.53 141.32L1027.04 142.63L1027.04 142.622L1027.05 142.613L1025.53 141.32ZM1020.22 150.77L1022.11 151.402L1022.11 151.402L1020.22 150.77ZM1018.87 161.48L1016.87 161.649L1016.87 161.667L1016.88 161.686L1018.87 161.48ZM1040.02 109.1L1040.45 107.148L1038.02 106.602V109.1H1040.02ZM1051.27 111.62L1053.26 111.602L1053.25 110.015L1051.7 109.668L1051.27 111.62ZM1051.27 172.91L1051.66 174.871L1052.25 174.752L1052.68 174.324L1051.27 172.91ZM1046.59 173.9L1046.17 171.944L1046.14 171.949L1046.12 171.955L1046.59 173.9ZM1041.28 175.07L1041.58 177.047L1041.58 177.047L1041.28 175.07ZM1036.42 175.61L1036.22 173.619L1036.22 173.62L1036.42 175.61ZM1030.66 175.61L1030.31 177.58L1030.33 177.583L1030.66 175.61ZM1025.44 174.35L1025.98 172.427L1025.96 172.42L1025.93 172.413L1025.44 174.35ZM1019.41 171.92L1020.39 170.177L1020.37 170.17L1020.36 170.163L1019.41 171.92ZM1011.49 165.08L1013.13 163.945L1013.13 163.945L1011.49 165.08ZM1008.52 156.8L1010.51 156.715L1010.51 156.715L1008.52 156.8ZM1009.51 148.25L1011.44 148.773L1011.44 148.763L1009.51 148.25ZM1013.2 140.24L1011.56 139.085L1011.56 139.093L1013.2 140.24ZM1018.69 133.76L1017.32 132.302L1017.3 132.313L1017.29 132.324L1018.69 133.76ZM1024.9 129.8L1025.57 131.681L1025.6 131.673L1025.62 131.664L1024.9 129.8ZM1030.66 129.35L1030.04 131.254L1030.05 131.258L1030.07 131.262L1030.66 129.35ZM1033.09 130.43L1032.09 132.166L1032.16 132.207L1032.24 132.242L1033.09 130.43ZM1035.25 131.6L1034.14 133.264L1034.18 133.29L1034.22 133.315L1035.25 131.6ZM1037.68 133.22L1036.52 134.854L1036.54 134.869L1036.57 134.884L1037.68 133.22ZM1040.02 134.75L1038.96 136.446L1042.02 138.358V134.75H1040.02ZM1021.92 170.194C1027.64 173.09 1034.2 171.446 1041.17 166.534L1038.86 163.266C1032.39 167.834 1027.49 168.53 1023.73 166.626L1021.92 170.194ZM1042.02 164.9V139.61H1038.02V164.9H1042.02ZM1041.03 137.885C1038.95 136.668 1036.21 135.929 1032.95 135.553L1032.5 139.527C1035.48 139.871 1037.6 140.512 1039 141.335L1041.03 137.885ZM1032.92 135.549C1029.54 135.22 1026.55 137.013 1024 140.027L1027.05 142.613C1029.18 140.107 1030.99 139.38 1032.53 139.531L1032.92 135.549ZM1024.01 140.01C1021.49 142.921 1019.6 146.304 1018.32 150.138L1022.11 151.402C1023.23 148.036 1024.88 145.119 1027.04 142.63L1024.01 140.01ZM1018.32 150.138C1017.04 153.978 1016.55 157.82 1016.87 161.649L1020.86 161.311C1020.58 158.06 1020.99 154.762 1022.11 151.402L1018.32 150.138ZM1016.88 161.686C1017.28 165.566 1018.82 168.645 1021.93 170.199L1023.72 166.621C1022.27 165.895 1021.17 164.354 1020.85 161.274L1016.88 161.686ZM1039.58 111.052L1050.83 113.572L1051.7 109.668L1040.45 107.148L1039.58 111.052ZM1049.27 111.638C1049.45 131.886 1049.54 147.112 1049.54 157.317C1049.54 162.422 1049.51 166.261 1049.47 168.842C1049.45 170.136 1049.42 171.095 1049.39 171.734C1049.37 172.058 1049.35 172.269 1049.34 172.389C1049.33 172.454 1049.33 172.451 1049.34 172.408C1049.34 172.39 1049.36 172.314 1049.4 172.212C1049.41 172.182 1049.52 171.826 1049.85 171.496L1052.68 174.324C1053.02 173.983 1053.15 173.605 1053.17 173.545C1053.21 173.412 1053.24 173.296 1053.26 173.227C1053.29 173.083 1053.3 172.94 1053.32 172.826C1053.34 172.587 1053.36 172.283 1053.38 171.935C1053.42 171.229 1053.44 170.217 1053.47 168.912C1053.51 166.295 1053.54 162.428 1053.54 157.317C1053.54 147.093 1053.44 131.854 1053.26 111.602L1049.27 111.638ZM1050.87 170.949C1050.56 171.012 1048.98 171.346 1046.17 171.944L1047 175.856C1049.83 175.254 1051.37 174.928 1051.66 174.871L1050.87 170.949ZM1046.12 171.955C1043.34 172.621 1041.65 172.988 1040.97 173.093L1041.58 177.047C1042.46 176.912 1044.31 176.499 1047.05 175.845L1046.12 171.955ZM1040.97 173.093C1040.26 173.203 1038.69 173.378 1036.22 173.619L1036.61 177.601C1039.06 177.362 1040.73 177.177 1041.58 177.047L1040.97 173.093ZM1036.22 173.62C1033.89 173.852 1032.17 173.835 1030.98 173.637L1030.33 177.583C1032.02 177.865 1034.14 177.848 1036.61 177.6L1036.22 173.62ZM1031 173.64C1029.71 173.416 1028.05 173.017 1025.98 172.427L1024.89 176.273C1027.02 176.883 1028.84 177.324 1030.31 177.58L1031 173.64ZM1025.93 172.413C1024 171.917 1022.16 171.173 1020.39 170.177L1018.42 173.663C1020.49 174.827 1022.67 175.703 1024.94 176.287L1025.93 172.413ZM1020.36 170.163C1017.17 168.425 1014.78 166.342 1013.13 163.945L1009.84 166.215C1011.91 169.218 1014.8 171.695 1018.45 173.677L1020.36 170.163ZM1013.13 163.945C1011.45 161.504 1010.61 159.102 1010.51 156.715L1006.52 156.885C1006.66 160.138 1007.8 163.256 1009.84 166.215L1013.13 163.945ZM1010.51 156.715C1010.4 154.111 1010.71 151.466 1011.44 148.773L1007.57 147.727C1006.74 150.794 1006.39 153.849 1006.52 156.885L1010.51 156.715ZM1011.44 148.763C1012.16 146.041 1013.29 143.587 1014.83 141.387L1011.56 139.093C1009.74 141.693 1008.41 144.579 1007.57 147.737L1011.44 148.763ZM1014.83 141.395C1016.51 139.024 1018.26 136.96 1020.08 135.196L1017.29 132.324C1015.27 134.28 1013.36 136.536 1011.56 139.085L1014.83 141.395ZM1020.05 135.218C1021.87 133.511 1023.71 132.353 1025.57 131.681L1024.22 127.919C1021.76 128.807 1019.46 130.289 1017.32 132.302L1020.05 135.218ZM1025.62 131.664C1027.49 130.938 1028.92 130.893 1030.04 131.254L1031.27 127.446C1029.03 126.727 1026.62 126.982 1024.17 127.936L1025.62 131.664ZM1030.07 131.262C1030.68 131.451 1031.36 131.746 1032.09 132.166L1034.08 128.694C1033.13 128.154 1032.19 127.729 1031.24 127.438L1030.07 131.262ZM1032.24 132.242C1033.09 132.64 1033.71 132.981 1034.14 133.264L1036.35 129.936C1035.7 129.499 1034.88 129.06 1033.93 128.618L1032.24 132.242ZM1034.22 133.315C1034.75 133.637 1035.52 134.144 1036.52 134.854L1038.83 131.586C1037.79 130.856 1036.94 130.283 1036.27 129.885L1034.22 133.315ZM1036.57 134.884C1037.65 135.605 1038.45 136.129 1038.96 136.446L1041.07 133.054C1040.62 132.771 1039.86 132.275 1038.78 131.556L1036.57 134.884ZM1042.02 134.75V109.1H1038.02V134.75H1042.02Z" fill="black"/>
</svg>
