<svg width="300" height="300" viewBox="0 0 300 300" fill="none" xmlns="http://www.w3.org/2000/svg">
<circle cx="150" cy="150" r="150" fill="black"/>
<circle cx="183.5" cy="121.5" r="92.5" fill="white"/>
<path d="M176.567 104.585C181.251 99.7845 184.772 94.5483 187.128 88.8769C189.576 83.1832 188.846 79.2299 184.94 77.0168C180.017 74.188 175.103 74.7209 170.196 78.6153C166.266 81.7897 164.098 85.685 163.693 90.3011C163.212 96.5694 166.52 101.043 173.616 103.723L176.567 104.585ZM181.321 150.412C182.927 150.691 184.807 150.518 186.96 149.894C189.204 149.247 191.235 148.124 193.053 146.525C194.849 144.835 196.566 143.021 198.204 141.081C199.843 139.142 200.894 136.962 201.357 134.542C201.821 132.122 201.831 129.813 201.388 127.615C200.945 125.417 199.551 123.261 197.206 121.145C194.861 119.03 191.654 117.318 187.585 116.009C184.293 118.258 181.304 121.154 178.617 124.696C176.021 128.216 174.194 131.739 173.137 135.266C172.058 138.702 172.168 141.894 173.468 144.843C174.746 147.701 177.363 149.557 181.321 150.412ZM202.857 79.5409C206.172 82.4758 206.935 86.3727 205.148 91.2317C203.452 96.0685 199.373 102.162 192.911 109.513C197.635 111.142 202.492 113.314 207.483 116.029C212.474 118.745 215.6 120.717 216.863 121.945C218.036 122.811 218.686 124.285 218.812 126.368C219.03 128.429 219.019 130.738 218.782 133.295C218.612 135.739 217.922 138.407 216.709 141.299C215.496 144.191 214.047 146.901 212.361 149.429C210.743 151.844 208.481 153.985 205.575 155.851C202.782 157.785 199.687 159.073 196.288 159.714C194.453 160.068 188.493 158.887 178.409 156.172C168.416 153.434 162.653 151.292 161.121 149.745C155.801 144.515 154.246 137.978 156.454 130.133C158.662 122.287 163.513 115.62 171.007 110.129C158.236 105.862 150.885 102.14 148.952 98.9623C147.85 97.2144 147.556 94.6438 148.069 91.2506C148.56 87.7667 149.696 84.1724 151.479 80.4679C153.238 76.6727 156.038 73.199 159.878 70.0468C163.786 66.7818 168.22 64.6849 173.182 63.7561C174.745 63.4687 179.535 65.5612 187.551 70.0336C195.658 74.4836 200.76 77.6528 202.857 79.5409Z" fill="black"/>
</svg>
