<svg version="1.1" xmlns="http://www.w3.org/2000/svg" viewBox="0 0 440.35107421875 96.800048828125" width="440.35107421875" height="96.800048828125">
  <!-- svg-source:excalidraw -->
  
  <defs>
    <style class="style-fonts">
      @font-face {
        font-family: "Virgil";
        src: url("https://excalidraw.com/Virgil.woff2");
      }
      @font-face {
        font-family: "Cascadia";
        src: url("https://excalidraw.com/Cascadia.woff2");
      }
    </style>
    
  </defs>
  <rect x="0" y="0" width="440.35107421875" height="96.800048828125" fill="#ffffff"></rect><g stroke-linecap="round" transform="translate(10 10) rotate(0 38.4000244140625 38.4000244140625)"><path d="M50.84 2.04 C57.66 3.83, 64.81 9.36, 68.97 15.7 C73.13 22.04, 75.83 32.39, 75.79 40.08 C75.75 47.78, 73 55.99, 68.74 61.85 C64.47 67.72, 57.25 73.26, 50.2 75.28 C43.16 77.29, 33.53 76.45, 26.46 73.96 C19.4 71.46, 12.37 66.31, 7.83 60.3 C3.3 54.29, -0.87 45.46, -0.74 37.88 C-0.62 30.3, 3.85 20.98, 8.57 14.83 C13.28 8.68, 20.08 3.03, 27.54 0.98 C34.99 -1.06, 48.85 2.12, 53.3 2.57 C57.75 3.01, 54.68 2.96, 54.22 3.65 M44.86 -0.35 C52.38 -0.28, 60.9 4.16, 66.33 9.37 C71.77 14.58, 76.49 23.36, 77.46 30.91 C78.44 38.47, 75.51 47.94, 72.18 54.68 C68.85 61.43, 64.06 67.66, 57.49 71.37 C50.91 75.07, 40.58 77.8, 32.72 76.91 C24.86 76.03, 15.59 71.14, 10.32 66.08 C5.05 61.02, 2.1 53.82, 1.12 46.58 C0.14 39.33, 1.43 29.47, 4.45 22.59 C7.46 15.71, 12.69 8.98, 19.21 5.29 C25.73 1.6, 39.33 1.18, 43.56 0.43 C47.79 -0.32, 44.5 0.31, 44.58 0.77" stroke="none" stroke-width="0" fill="#1e1e1e"></path><path d="M23.06 2.71 C29.45 -0.91, 39.07 -1.14, 46.22 0.51 C53.37 2.15, 61.03 7.13, 65.94 12.58 C70.84 18.04, 74.58 25.78, 75.65 33.25 C76.73 40.73, 75.96 50.93, 72.38 57.45 C68.79 63.96, 61.14 69.21, 54.14 72.34 C47.14 75.46, 37.83 77.39, 30.37 76.2 C22.9 75.02, 14.43 70.7, 9.34 65.24 C4.25 59.78, 0.71 51.08, -0.18 43.43 C-1.07 35.79, -0.87 26.21, 4.02 19.34 C8.91 12.48, 23.96 5.44, 29.14 2.25 C34.32 -0.94, 35.14 -0.29, 35.1 0.22 M22.54 3.53 C28.96 -0.28, 39.3 -0.72, 46.46 0.68 C53.62 2.08, 60.48 6.74, 65.51 11.91 C70.55 17.09, 75.61 24.54, 76.68 31.74 C77.76 38.94, 75.48 48.23, 71.96 55.14 C68.44 62.05, 62.47 69.63, 55.58 73.21 C48.68 76.8, 37.83 77.91, 30.58 76.66 C23.33 75.41, 17.34 71.05, 12.07 65.71 C6.79 60.38, 0.19 51.98, -1.06 44.66 C-2.31 37.33, 0.81 28.67, 4.57 21.77 C8.32 14.87, 18.32 6.15, 21.46 3.24 C24.6 0.32, 23.28 3.56, 23.42 4.27" stroke="#1e1e1e" stroke-width="1" fill="none"></path></g><g stroke-linecap="round" transform="translate(38.79998779296875 22.80004119873047) rotate(0 18.4000244140625 18.400001525878906)"><path d="M11.2 0.43 C14.81 -1.17, 21.12 -0.75, 24.9 0.51 C28.68 1.78, 31.86 4.77, 33.88 8 C35.91 11.23, 37.49 15.92, 37.04 19.91 C36.59 23.89, 34.25 29.15, 31.19 31.93 C28.14 34.71, 22.87 36.55, 18.72 36.57 C14.57 36.6, 9.52 34.36, 6.31 32.09 C3.1 29.83, 0.2 26.73, -0.55 22.99 C-1.29 19.25, -0.53 13.39, 1.85 9.67 C4.24 5.95, 11.16 2.2, 13.78 0.68 C16.4 -0.84, 17.27 0.29, 17.56 0.56 M22.93 1.52 C26.15 2.18, 30.37 5.05, 32.58 8.11 C34.78 11.17, 36.69 15.84, 36.16 19.88 C35.63 23.92, 32.44 29.73, 29.39 32.33 C26.35 34.93, 21.54 35.38, 17.89 35.46 C14.24 35.55, 10.32 35.15, 7.51 32.82 C4.7 30.48, 1.91 25.15, 1.03 21.48 C0.15 17.81, 0.63 14.03, 2.23 10.79 C3.83 7.56, 6.74 3.48, 10.64 2.08 C14.54 0.68, 23.62 2.69, 25.64 2.42 C27.65 2.14, 23.01 0.56, 22.73 0.43" stroke="none" stroke-width="0" fill="#ffffff"></path><path d="M24.23 0.97 C28.15 2.05, 32.62 5.95, 34.84 9.25 C37.07 12.56, 38.3 17.09, 37.6 20.81 C36.89 24.53, 33.6 29.1, 30.61 31.59 C27.62 34.09, 23.44 35.43, 19.66 35.79 C15.89 36.14, 11.3 35.78, 7.94 33.71 C4.58 31.64, 0.55 27.47, -0.47 23.35 C-1.49 19.23, -0.27 12.66, 1.81 9 C3.9 5.35, 7.71 2.61, 12.03 1.42 C16.36 0.23, 24.92 1.44, 27.78 1.86 C30.64 2.28, 29.35 3.58, 29.19 3.96 M13.87 1.56 C17.72 0.11, 23.6 -0.72, 27.14 0.9 C30.68 2.52, 33.44 7.55, 35.12 11.27 C36.8 14.99, 38.29 19.57, 37.2 23.22 C36.11 26.88, 32.07 31.1, 28.59 33.19 C25.1 35.27, 20.25 35.94, 16.28 35.73 C12.31 35.51, 7.46 34.6, 4.76 31.9 C2.06 29.21, 0.29 23.66, 0.08 19.56 C-0.14 15.46, 1.16 10.31, 3.46 7.3 C5.76 4.29, 12.38 2.68, 13.86 1.5 C15.35 0.33, 12.14 0.03, 12.36 0.26" stroke="#ffffff" stroke-width="1" fill="none"></path></g><g transform="translate(46.00006103515625 24.40001678466797) rotate(0 12.048744201660156 19.689538246733818)"><text x="0" y="0" font-family="Virgil, Segoe UI Emoji" font-size="31.503261194774105px" fill="#1e1e1e" text-anchor="start" style="white-space: pre;" direction="ltr" dominant-baseline="text-before-edge">8</text></g><g transform="translate(121.20001220703125 37.199974060058594) rotate(0 154.57553100585938 21.29999542236328)"><text x="0" y="0" font-family="Virgil, Segoe UI Emoji" font-size="34.07999267578124px" fill="#1e1e1e" text-anchor="start" style="white-space: pre;" direction="ltr" dominant-baseline="text-before-edge">THE 8 Ball Brand</text></g></svg>